<svg width="200" height="74" viewBox="0 0 200 74" fill="none" xmlns="http://www.w3.org/2000/svg">
<path d="M22.2819 47.7293L14.5135 32.8865L20.662 25.559L21.1532 25.9711L20.6631 26.5552C20.2175 27.0862 19.954 27.5889 19.8726 28.0634C19.8108 28.3886 19.8703 28.7401 20.0509 29.1179C20.1816 29.3935 20.6939 29.9063 21.5877 30.6563L33.455 40.6142C34.3754 41.3864 34.9914 41.8204 35.3032 41.9161C35.615 42.0119 35.9856 41.9835 36.4151 41.8312C36.8357 41.6714 37.2576 41.3393 37.6809 40.8348L38.171 40.2508L38.6622 40.6629L30.776 50.0612L30.2849 49.649L30.775 49.065C31.2205 48.534 31.484 48.0312 31.5655 47.5567C31.6273 47.2315 31.5634 46.8763 31.3739 46.4911C31.2432 46.2155 30.7265 45.699 29.8239 44.9416L16.4831 33.7474L27.1115 54.4285L26.8441 54.747L4.66198 48.0778L17.3391 58.7151C18.224 59.4577 18.7868 59.8922 19.0275 60.0188C19.5665 60.275 20.1373 60.3317 20.7398 60.1888C21.3408 60.0296 21.9867 59.5385 22.6773 58.7155L23.1684 59.1276L18.0001 65.2869L17.509 64.8748L17.6649 64.689C18.0079 64.2982 18.2578 63.8745 18.4147 63.418C18.5627 62.954 18.5959 62.537 18.5144 62.167C18.4328 61.7969 18.2249 61.3887 17.8906 60.9423C17.8081 60.843 17.3642 60.4554 16.5589 59.7797L5.16944 50.2228C4.25793 49.4579 3.65072 49.0314 3.34779 48.9431C3.03602 48.8473 2.66983 48.8794 2.24921 49.0392C1.81974 49.1915 1.39338 49.5199 0.970112 50.0244L0.491154 50.5952L0 50.183L6.17076 42.829L22.2819 47.7293Z" fill="#80241C"/>
<path d="M40.9668 17.8413L41.379 18.3324C40.963 18.6814 40.7328 19.0631 40.6884 19.4774C40.6528 19.8843 40.9877 20.5081 41.6932 21.3488L47.63 28.4241C48.4023 29.3444 49.0269 29.8911 49.5037 30.064C49.9732 30.228 50.4617 30.1273 50.9693 29.7617L51.3814 30.2528L45.0495 35.5659L44.6374 35.0748C45.4764 34.2954 45.2906 33.1845 44.0803 31.742L41.6632 28.8614C41.3595 29.1464 41.1855 29.3075 41.1412 29.3446C41.0085 29.456 40.7931 29.6217 40.495 29.8416L43.0849 37.2145L38.1733 41.3357L37.7612 40.8446C38.7184 40.0263 38.9439 38.9021 38.4376 37.4721L36.6299 32.4062C34.2637 33.3964 32.442 33.1304 31.1647 31.6083C30.5113 30.8295 30.2021 29.9579 30.2373 28.9934C30.2725 28.0289 30.5625 27.1973 31.1075 26.4988C31.6538 25.784 32.7765 24.7138 34.4756 23.288L40.9668 17.8413ZM36.8068 23.0738C36.1807 23.388 35.6907 23.6936 35.3367 23.9906C34.5845 24.6218 34.2067 25.3309 34.2035 26.1178C34.2017 26.8884 34.4903 27.6189 35.0695 28.3091C35.7824 29.1587 36.616 29.6129 37.5702 29.6718C38.517 29.7219 39.517 29.305 40.5701 28.4214C40.6674 28.3397 40.8053 28.2165 40.9837 28.0517L36.8068 23.0738Z" fill="#80241C"/>
<path d="M61.7427 20.5123L62.4159 20.6038C62.4718 22.2257 62.1807 23.6276 61.5426 24.8097C60.9087 25.9761 60.0365 26.8798 58.926 27.521C57.0551 28.6011 55.1522 28.7593 53.2173 27.9956C51.2823 27.2319 49.743 25.8596 48.5993 23.8787C47.4961 21.9678 47.0359 19.9924 47.2188 17.9526C47.4386 15.4913 48.6289 13.6368 50.7899 12.3892C52.2406 11.5516 53.602 11.2525 54.874 11.4919C56.1561 11.7255 57.057 12.2925 57.5769 13.1929C57.9061 13.7632 57.9939 14.3195 57.8401 14.8618C57.6963 15.3983 57.3443 15.8283 56.7841 16.1518C56.1938 16.4926 55.5909 16.5805 54.9755 16.4156C54.37 16.2449 53.7335 15.6854 53.0658 14.7369C52.6419 14.1413 52.2427 13.7848 51.8682 13.6675C51.4936 13.5503 51.1513 13.5812 50.8412 13.7602C50.361 14.0375 50.0981 14.5294 50.0525 15.2361C49.977 16.3068 50.3985 17.6375 51.3169 19.2282C52.0793 20.5489 53.0201 21.6931 54.1392 22.6611C55.2526 23.6191 56.3448 24.1823 57.4159 24.351C58.2146 24.4635 58.9891 24.3031 59.7394 23.8699C60.2296 23.5869 60.6284 23.2032 60.9358 22.719C61.2431 22.2347 61.5121 21.4991 61.7427 20.5123Z" fill="#80241C"/>
<path d="M66.5967 5.94562C67.9211 5.46358 69.2776 5.35708 70.6664 5.62612C72.0552 5.89515 73.2718 6.55262 74.3164 7.59851C75.3718 8.64046 76.1721 9.91047 76.7173 11.4086C77.5036 13.5688 77.6133 15.5758 77.0463 17.4296C76.362 19.6702 74.8529 21.2153 72.5189 22.0648C70.2283 22.8985 68.1719 22.7372 66.3496 21.581C64.5273 20.4248 63.2309 18.7883 62.4604 16.6714C61.6662 14.4894 61.6044 12.3605 62.275 10.2847C62.9524 8.19406 64.393 6.7477 66.5967 5.94562ZM67.0826 7.07804C66.529 7.27955 66.1284 7.66508 65.8808 8.23465C65.6401 8.7894 65.6799 9.70926 66 10.9942C66.3271 12.2644 66.8897 13.9959 67.6878 16.1887C68.1106 17.3503 68.5817 18.4082 69.1012 19.3624C69.5011 20.0897 69.9696 20.5831 70.5066 20.8425C71.0436 21.1019 71.5617 21.1407 72.0611 20.959C72.5496 20.7812 72.9073 20.4973 73.1342 20.1074C73.4232 19.5842 73.5178 18.9658 73.4179 18.2523C73.2597 17.142 72.6096 15.0182 71.4677 11.8809C70.796 10.0354 70.2326 8.80828 69.7774 8.19945C69.3183 7.57976 68.8306 7.1856 68.3143 7.01698C67.9491 6.89174 67.5385 6.91209 67.0826 7.07804Z" fill="#80241C"/>
<path d="M95.6224 0.655592L95.7338 1.28701C94.9969 1.49904 94.5438 1.79009 94.3745 2.16014C94.2031 2.51881 94.2097 3.22148 94.3942 4.26815L96.0703 13.7735C96.2468 14.7747 96.4893 15.4181 96.7978 15.7039C97.1063 15.9897 97.6152 16.0818 98.3246 15.9802L98.4359 16.6116L90.3128 18.0439L90.2015 17.4125C90.9069 17.2881 91.3061 17.0242 91.3992 16.6207C91.4922 16.2172 91.4635 15.5888 91.3131 14.7355L89.2248 2.8922L84.6513 3.69863L86.7185 15.4225C86.9031 16.4691 87.1258 17.1337 87.3868 17.4161C87.6477 17.6986 88.0911 17.7846 88.7168 17.6743L88.8281 18.3057L80.7051 19.738L80.5937 19.1066C81.2857 18.9729 81.7268 18.7133 81.9169 18.3278C82.107 17.9424 82.1037 17.1922 81.9072 16.0773L80.2251 6.53781C80.0405 5.49114 79.781 4.85067 79.4464 4.6164C79.1212 4.36875 78.64 4.30109 78.0029 4.41343L77.8916 3.78201L95.6224 0.655592Z" fill="#80241C"/>
<path d="M105.631 15.0412V21.0715C105.631 21.9033 105.694 22.4693 105.821 22.7697C105.96 23.07 106.168 23.2895 106.445 23.4282C106.722 23.5668 107.265 23.6361 108.074 23.6361V24.2773H98.8379V23.6361C99.5541 23.613 100.086 23.4108 100.432 23.0296C100.663 22.7639 100.779 22.0765 100.779 20.9675V3.86426C100.779 2.72058 100.646 1.99278 100.38 1.68087C100.114 1.3574 99.6003 1.17256 98.8379 1.12635V0.485199L105.631 0.485199V2.61661C106.197 1.78484 106.774 1.18412 107.364 0.814441C108.207 0.27148 109.125 0 110.119 0C111.309 0 112.389 0.375451 113.359 1.12635C114.341 1.87726 115.086 2.91697 115.595 4.24549C116.103 5.56246 116.357 6.9834 116.357 8.50831C116.357 10.1487 116.091 11.6505 115.56 13.0137C115.04 14.3653 114.278 15.3993 113.273 16.1155C112.279 16.8202 111.17 17.1726 109.945 17.1726C109.056 17.1726 108.224 16.9762 107.45 16.5834C106.873 16.283 106.266 15.769 105.631 15.0412ZM105.631 13.291C106.624 14.7004 107.687 15.4051 108.819 15.4051C109.443 15.4051 109.957 15.0758 110.361 14.4173C110.962 13.4469 111.262 11.5986 111.262 8.87221C111.262 6.07654 110.933 4.16462 110.275 3.13646C109.836 2.45487 109.247 2.11408 108.507 2.11408C107.34 2.11408 106.382 2.9574 105.631 4.64405V13.291Z" fill="#80241C"/>
<path d="M128.389 3.29854C129.768 3.59157 130.975 4.22013 132.01 5.18422C133.045 6.14831 133.728 7.3506 134.06 8.79109C134.403 10.234 134.409 11.7351 134.077 13.2945C133.599 15.5432 132.629 17.3033 131.165 18.5749C129.398 20.1125 127.299 20.6231 124.87 20.1067C122.485 19.5999 120.827 18.3734 119.894 16.4272C118.961 14.481 118.729 12.4061 119.198 10.2027C119.68 7.93137 120.756 6.0932 122.425 4.68813C124.107 3.27416 126.095 2.81097 128.389 3.29854ZM128.201 4.5164C127.625 4.3939 127.081 4.50857 126.569 4.86039C126.071 5.20332 125.617 6.00447 125.208 7.26384C124.812 8.51431 124.372 10.2808 123.887 12.5634C123.63 13.7725 123.468 14.9193 123.403 16.0038C123.357 16.8325 123.493 17.4992 123.811 18.0037C124.129 18.5083 124.548 18.8158 125.067 18.9263C125.576 19.0344 126.03 18.9832 126.429 18.7728C126.951 18.4823 127.359 18.008 127.652 17.3499C128.107 16.3244 128.681 14.1789 129.375 10.9132C129.783 8.99221 129.956 7.65296 129.892 6.89543C129.831 6.1266 129.627 5.5339 129.278 5.11733C129.035 4.81759 128.676 4.61727 128.201 4.5164Z" fill="#80241C"/>
<path d="M153.014 13.1385L152.753 13.7243C152.057 13.4141 151.528 13.3939 151.168 13.6634C150.818 13.9376 150.512 14.3703 150.249 14.9613L145.985 24.5387C145.604 25.3935 145.482 26.0092 145.618 26.3858C145.769 26.7566 146.124 27.0794 146.685 27.3542L144.69 31.8342L144.105 31.5735C145.018 28.8692 143.955 26.8404 140.915 25.4872L136.625 23.5772C133.691 22.2709 131.493 22.8477 130.031 25.3076L129.446 25.0469L131.44 20.5669C132.806 21.0487 134.366 20.3142 136.12 18.3636C137.884 16.4176 139.342 14.1518 140.493 11.5662C140.841 10.7852 141.044 10.1737 141.101 9.73148C141.164 9.27876 141.113 8.93974 140.947 8.71442C140.793 8.4938 140.433 8.25135 139.867 7.98706L140.128 7.40134L153.014 13.1385ZM146.523 11.4435L142.613 9.70256L141.577 12.0296C139.552 16.5782 137.16 19.7055 134.403 21.4116L139.278 23.5824C140.302 24.0382 141.094 23.6381 141.653 22.3823L146.523 11.4435Z" fill="#80241C"/>
<path d="M154.018 34.2133L156.17 21.2917C156.499 19.3428 156.617 18.0901 156.523 17.5337C156.44 16.9835 156.219 16.4959 155.862 16.0709L156.211 15.5331L163.434 20.2237L163.085 20.7614C162.597 20.4725 162.203 20.3475 161.903 20.3864C161.602 20.4252 161.376 20.5609 161.225 20.7935C160.986 21.1616 160.756 22.0456 160.536 23.4453L159.407 30.2744L163.662 27.1903C165.184 26.0985 166.13 25.2668 166.501 24.6952C166.734 24.3367 166.799 23.9723 166.695 23.6018C166.601 23.2377 166.26 22.8508 165.671 22.4414L166.021 21.9037L170.569 24.8577L170.22 25.3954C169.743 25.1544 169.267 25.0929 168.791 25.2108C168.321 25.3189 167.2 26.0166 165.427 27.3036L155.007 34.855C152.392 36.7386 150.659 37.8169 149.807 38.0899C148.609 38.4696 147.507 38.3323 146.5 37.6779C145.695 37.1557 145.192 36.4985 144.991 35.7062C144.792 34.93 144.904 34.2173 145.325 33.5682C145.69 33.0062 146.162 32.6513 146.74 32.5033C147.328 32.3617 147.874 32.4544 148.378 32.7816C148.862 33.0962 149.149 33.5029 149.238 34.0017C149.337 34.5068 149.181 35.087 148.769 35.7424C148.539 36.1169 148.429 36.3826 148.437 36.5395C148.446 36.6964 148.522 36.822 148.668 36.9164C148.9 37.0674 149.238 37.0874 149.683 36.9763C150.334 36.8211 151.394 36.1867 152.861 35.0731L154.018 34.2133Z" fill="#80241C"/>
<path d="M172.662 26.1267L178.595 31.8565L178.15 32.3177C177.685 31.901 177.261 31.7327 176.879 31.8129C176.505 31.9012 175.952 32.3234 175.222 33.0796L172.453 35.9466C173.384 36.8454 174.164 37.3097 174.794 37.3396C175.44 37.3691 176.334 37.1084 177.476 36.5574C179.08 35.7778 180.327 35.3761 181.218 35.3524C182.124 35.3284 182.968 35.6936 183.749 36.4479C184.405 37.0819 184.798 37.8226 184.927 38.67C185.065 39.5091 184.84 40.232 184.255 40.8387C183.805 41.304 183.275 41.5625 182.663 41.614C182.067 41.6652 181.541 41.4702 181.084 41.0288C180.145 40.122 180.132 39.1786 181.047 38.1986C181.688 37.5174 181.868 37.0404 181.585 36.7676C181.162 36.3583 180.184 36.5143 178.652 37.2354C177.405 37.8291 176.598 38.1823 176.232 38.2948C175.866 38.4074 175.381 38.4527 174.776 38.4306C175.455 39.4073 175.845 40.2175 175.946 40.8611C176.055 41.5128 175.932 42.6383 175.576 44.2377L174.964 47.0915C174.631 48.6006 174.76 49.6891 175.352 50.3569L174.907 50.8181L170.419 46.4846L172.431 37.4666L171.683 36.7443L168.553 39.9853C167.847 40.7165 167.445 41.3077 167.346 41.7588C167.256 42.2015 167.403 42.632 167.786 43.0502L167.34 43.5114L161.407 37.7816L161.852 37.3203C162.251 37.6892 162.667 37.8903 163.101 37.9236C163.534 37.9568 164.144 37.5663 164.931 36.7519L171.575 29.8712C172.322 29.0983 172.736 28.4784 172.817 28.0112C172.915 27.5438 172.715 27.0694 172.217 26.5879L172.662 26.1267Z" fill="#80241C"/>
<path d="M177.052 53.6235L177.578 53.2557C177.975 53.8235 178.394 54.1088 178.833 54.1115C179.278 54.1238 179.937 53.8251 180.807 53.2155L190.474 46.4469L189.55 45.1268C188.9 44.1994 188.284 43.6719 187.701 43.5442C187.118 43.4165 186.228 43.6163 185.032 44.1436L184.664 43.6184L188.128 41.1932L197.391 54.4227L193.928 56.8479L193.56 56.3227C194.387 55.4897 194.874 54.7751 195.021 54.1789C195.177 53.576 194.903 52.773 194.201 51.7699L193.257 50.4214L183.59 57.19C182.691 57.8195 182.177 58.3344 182.049 58.7348C181.927 59.1446 182.06 59.6367 182.448 60.2111L181.923 60.5789L177.052 53.6235Z" fill="#80241C"/>
<path fill-rule="evenodd" clip-rule="evenodd" d="M1.2627 72.188C1.2627 71.4752 1.84047 70.8975 2.5532 70.8975H198.71C199.422 70.8975 200 71.4752 200 72.188C200 72.9007 199.422 73.4785 198.71 73.4785H2.5532C1.84047 73.4785 1.2627 72.9007 1.2627 72.188Z" fill="#80241C"/>
<path fill-rule="evenodd" clip-rule="evenodd" d="M101.987 35.7313C73.7785 35.7313 49.4416 49.0869 34.2913 72.8811C33.9085 73.4823 33.1108 73.6594 32.5096 73.2766C31.9084 72.8938 31.7314 72.0961 32.1142 71.4949C47.7382 46.9565 72.8963 33.1503 101.987 33.1503C131.098 33.1503 153.748 46.2823 168.212 71.5468C168.566 72.1653 168.352 72.9538 167.734 73.3079C167.115 73.662 166.327 73.4477 165.972 72.8292C151.968 48.3678 130.173 35.7313 101.987 35.7313Z" fill="#80241C"/>
</svg>
