<svg width="23" height="11" viewBox="0 0 23 11" xmlns="http://www.w3.org/2000/svg">
<path d="M22.4713 5.02043L17.8047 0.353767C17.6789 0.232329 17.5105 0.165132 17.3357 0.166651C17.1609 0.16817 16.9937 0.238283 16.8701 0.361888C16.7465 0.485494 16.6764 0.652702 16.6749 0.8275C16.6734 1.0023 16.7406 1.1707 16.862 1.29643L20.3907 4.8251H0.666667C0.489856 4.8251 0.320286 4.89534 0.195262 5.02036C0.0702377 5.14539 0 5.31496 0 5.49177C0 5.66858 0.0702377 5.83815 0.195262 5.96317C0.320286 6.0882 0.489856 6.15843 0.666667 6.15843H20.3907L16.862 9.6871C16.7983 9.7486 16.7475 9.82216 16.7126 9.9035C16.6777 9.98483 16.6593 10.0723 16.6585 10.1608C16.6577 10.2494 16.6746 10.3371 16.7081 10.4191C16.7416 10.501 16.7911 10.5754 16.8537 10.638C16.9163 10.7006 16.9908 10.7501 17.0727 10.7837C17.1546 10.8172 17.2424 10.834 17.3309 10.8333C17.4195 10.8325 17.5069 10.8141 17.5883 10.7792C17.6696 10.7442 17.7432 10.6934 17.8047 10.6298L22.4713 5.9631C22.5963 5.83808 22.6665 5.66854 22.6665 5.49177C22.6665 5.31499 22.5963 5.14545 22.4713 5.02043Z" fill="currentColor"/>
</svg>
