<svg width="21" height="22" viewBox="0 0 21 22" xmlns="http://www.w3.org/2000/svg">
<path d="M14.5942 14.9006C14.4259 14.7314 14.226 14.5972 14.0058 14.5056C13.7856 14.4139 13.5496 14.3668 13.3112 14.3668C13.0728 14.3668 12.8367 14.4139 12.6166 14.5056C12.3964 14.5972 12.1965 14.7314 12.0282 14.9006L11.1527 15.7779C10.167 15.151 9.25375 14.4165 8.42972 13.5877C7.60445 12.7604 6.87158 11.8455 6.24408 10.8591L7.11954 9.9818C7.28841 9.81317 7.42239 9.6128 7.51381 9.39218C7.60523 9.17155 7.65229 8.93501 7.65229 8.69613C7.65229 8.45724 7.60523 8.2207 7.51381 8.00007C7.42239 7.77945 7.28841 7.57908 7.11954 7.41045L5.41088 5.70429C5.24498 5.53451 5.04672 5.3999 4.82787 5.30843C4.60901 5.21697 4.37405 5.17053 4.13693 5.17187C3.89813 5.17128 3.66157 5.21802 3.44086 5.30939C3.22016 5.40077 3.01966 5.53497 2.85091 5.70429L2.02978 6.52107C1.6384 6.94275 1.3463 7.44696 1.17495 7.99664C1.00359 8.54632 0.957345 9.12749 1.0396 9.69744C1.23281 11.9663 2.71808 14.6949 5.00636 16.994C7.29464 19.2931 10.0478 20.7754 12.3119 20.9932C12.4809 21.0023 12.6502 21.0023 12.8191 20.9932C13.3065 21.0137 13.793 20.9365 14.2503 20.7661C14.7075 20.5957 15.1261 20.3356 15.4817 20.001L16.2968 19.1781C16.4658 19.009 16.5997 18.8081 16.6909 18.587C16.7821 18.3658 16.8287 18.1287 16.8281 17.8894C16.8295 17.6518 16.7831 17.4164 16.6919 17.1971C16.6006 16.9778 16.4662 16.7791 16.2968 16.6129L14.5942 14.9006ZM15.4455 18.3251L14.6244 19.1418C14.3208 19.3954 13.9664 19.5806 13.5851 19.685C13.2039 19.7894 12.8047 19.8105 12.4146 19.7469C10.4523 19.5775 7.95274 18.1859 5.88786 16.1167C3.82297 14.0476 2.43431 11.5609 2.24714 9.59458C2.18203 9.20369 2.20229 8.80329 2.30652 8.421C2.41076 8.03871 2.59649 7.68361 2.85091 7.3802L3.70222 6.55737C3.75863 6.5013 3.82554 6.45693 3.8991 6.42682C3.97267 6.39671 4.05143 6.38145 4.13089 6.38191C4.21035 6.38145 4.28912 6.39671 4.36268 6.42682C4.43625 6.45693 4.50315 6.5013 4.55957 6.55737L6.26823 8.28774C6.38068 8.40109 6.4438 8.55444 6.4438 8.71428C6.4438 8.87411 6.38068 9.02746 6.26823 9.14082L5.0607 10.3509C4.9662 10.4451 4.90549 10.568 4.88801 10.7004C4.87054 10.8328 4.89729 10.9673 4.96409 11.0829C5.68704 12.3162 6.56573 13.451 7.57841 14.459C8.58433 15.4738 9.71668 16.3543 10.9474 17.0787C11.0628 17.1457 11.197 17.1725 11.3292 17.155C11.4613 17.1374 11.584 17.0766 11.678 16.9819L12.8855 15.7719C12.9987 15.6592 13.1517 15.5959 13.3112 15.5959C13.4707 15.5959 13.6237 15.6592 13.7368 15.7719L15.4455 17.4841C15.5015 17.5406 15.5457 17.6077 15.5758 17.6814C15.6058 17.7551 15.6211 17.834 15.6206 17.9136C15.6168 18.0682 15.5542 18.2154 15.4455 18.3251Z"/>
<path d="M7.96351 3.35828L8.9407 1.96271C9.03368 1.82991 9.07003 1.66556 9.04173 1.50581C9.01344 1.34605 8.92282 1.20399 8.78982 1.11086C8.65682 1.01773 8.49233 0.981167 8.33253 1.00922C8.17273 1.03727 8.03072 1.12763 7.93774 1.26042L6.18747 3.76006C6.09457 3.89273 6.05821 4.0569 6.08636 4.21651C6.11451 4.37613 6.20487 4.51815 6.3376 4.61139L8.84228 6.371C8.97509 6.4643 9.13947 6.50112 9.29926 6.47336C9.45906 6.4456 9.60119 6.35553 9.69441 6.22296L9.69511 6.22196C9.788 6.0893 9.82437 5.92513 9.79622 5.76551C9.76807 5.60589 9.67771 5.46387 9.54498 5.37064L8.34631 4.52871C9.81084 3.84731 11.4601 3.66826 13.0383 4.01933C14.6165 4.3704 16.0355 5.23196 17.0752 6.47041C18.1148 7.70886 18.7171 9.25497 18.7885 10.869C18.8599 12.483 18.3966 14.0747 17.4703 15.3972C17.3773 15.53 17.3409 15.6944 17.3692 15.8541C17.3975 16.0139 17.4882 16.1559 17.6212 16.2491C17.7542 16.3422 17.9187 16.3787 18.0784 16.3507C18.2382 16.3226 18.3803 16.2323 18.4732 16.0995C19.5463 14.5669 20.0867 12.7243 20.0118 10.8538C19.937 8.98336 19.2509 7.18805 18.0587 5.74272C16.8665 4.29738 15.2339 3.28165 13.4106 2.85102C11.5874 2.42038 9.67406 2.59856 7.96351 3.35828Z"/>
<path d="M14.5942 14.9006C14.4259 14.7314 14.226 14.5972 14.0058 14.5056C13.7856 14.4139 13.5496 14.3668 13.3112 14.3668C13.0728 14.3668 12.8367 14.4139 12.6166 14.5056C12.3964 14.5972 12.1965 14.7314 12.0282 14.9006L11.1527 15.7779C10.167 15.151 9.25375 14.4165 8.42972 13.5877C7.60445 12.7604 6.87158 11.8455 6.24408 10.8591L7.11954 9.9818C7.28841 9.81317 7.42239 9.6128 7.51381 9.39218C7.60523 9.17155 7.65229 8.93501 7.65229 8.69613C7.65229 8.45724 7.60523 8.2207 7.51381 8.00007C7.42239 7.77945 7.28841 7.57908 7.11954 7.41045L5.41088 5.70429C5.24498 5.53451 5.04672 5.3999 4.82787 5.30843C4.60901 5.21697 4.37405 5.17053 4.13693 5.17187C3.89813 5.17128 3.66157 5.21802 3.44086 5.30939C3.22016 5.40077 3.01966 5.53497 2.85091 5.70429L2.02978 6.52107C1.6384 6.94275 1.3463 7.44696 1.17495 7.99664C1.00359 8.54632 0.957345 9.12749 1.0396 9.69744C1.23281 11.9663 2.71808 14.6949 5.00636 16.994C7.29464 19.2931 10.0478 20.7754 12.3119 20.9932C12.4809 21.0023 12.6502 21.0023 12.8191 20.9932C13.3065 21.0137 13.793 20.9365 14.2503 20.7661C14.7075 20.5957 15.1261 20.3356 15.4817 20.001L16.2968 19.1781C16.4658 19.009 16.5997 18.8081 16.6909 18.587C16.7821 18.3658 16.8287 18.1287 16.8281 17.8894C16.8295 17.6518 16.7831 17.4164 16.6919 17.1971C16.6006 16.9778 16.4662 16.7791 16.2968 16.6129L14.5942 14.9006ZM15.4455 18.3251L14.6244 19.1418C14.3208 19.3954 13.9664 19.5806 13.5851 19.685C13.2039 19.7894 12.8047 19.8105 12.4146 19.7469C10.4523 19.5775 7.95274 18.1859 5.88786 16.1167C3.82297 14.0476 2.43431 11.5609 2.24714 9.59458C2.18203 9.20369 2.20229 8.80329 2.30652 8.421C2.41076 8.03871 2.59649 7.68361 2.85091 7.3802L3.70222 6.55737C3.75863 6.5013 3.82554 6.45693 3.8991 6.42682C3.97267 6.39671 4.05143 6.38145 4.13089 6.38191C4.21035 6.38145 4.28912 6.39671 4.36268 6.42682C4.43625 6.45693 4.50315 6.5013 4.55957 6.55737L6.26823 8.28774C6.38068 8.40109 6.4438 8.55444 6.4438 8.71428C6.4438 8.87411 6.38068 9.02746 6.26823 9.14082L5.0607 10.3509C4.9662 10.4451 4.90549 10.568 4.88801 10.7004C4.87054 10.8328 4.89729 10.9673 4.96409 11.0829C5.68704 12.3162 6.56573 13.451 7.57841 14.459C8.58433 15.4738 9.71668 16.3543 10.9474 17.0787C11.0628 17.1457 11.197 17.1725 11.3292 17.155C11.4613 17.1374 11.584 17.0766 11.678 16.9819L12.8855 15.7719C12.9987 15.6592 13.1517 15.5959 13.3112 15.5959C13.4707 15.5959 13.6237 15.6592 13.7368 15.7719L15.4455 17.4841C15.5015 17.5406 15.5457 17.6077 15.5758 17.6814C15.6058 17.7551 15.6211 17.834 15.6206 17.9136C15.6168 18.0682 15.5542 18.2154 15.4455 18.3251Z" fill="currentColor"/>
<path d="M7.96351 3.35828L8.9407 1.96271C9.03368 1.82991 9.07003 1.66556 9.04173 1.50581C9.01344 1.34605 8.92282 1.20399 8.78982 1.11086C8.65682 1.01773 8.49233 0.981167 8.33253 1.00922C8.17273 1.03727 8.03072 1.12763 7.93774 1.26042L6.18747 3.76006C6.09457 3.89273 6.05821 4.0569 6.08636 4.21651C6.11451 4.37613 6.20487 4.51815 6.3376 4.61139L8.84228 6.371C8.97509 6.4643 9.13947 6.50112 9.29926 6.47336C9.45906 6.4456 9.60119 6.35553 9.69441 6.22296L9.69511 6.22196C9.788 6.0893 9.82437 5.92513 9.79622 5.76551C9.76807 5.60589 9.67771 5.46387 9.54498 5.37064L8.34631 4.52871C9.81084 3.84731 11.4601 3.66826 13.0383 4.01933C14.6165 4.3704 16.0355 5.23196 17.0752 6.47041C18.1148 7.70886 18.7171 9.25497 18.7885 10.869C18.8599 12.483 18.3966 14.0747 17.4703 15.3972C17.3773 15.53 17.3409 15.6944 17.3692 15.8541C17.3975 16.0139 17.4882 16.1559 17.6212 16.2491C17.7542 16.3422 17.9187 16.3787 18.0784 16.3507C18.2382 16.3226 18.3803 16.2323 18.4732 16.0995C19.5463 14.5669 20.0867 12.7243 20.0118 10.8538C19.937 8.98336 19.2509 7.18805 18.0587 5.74272C16.8665 4.29738 15.2339 3.28165 13.4106 2.85102C11.5874 2.42038 9.67406 2.59856 7.96351 3.35828Z" fill="currentColor"/>
<path d="M14.5942 14.9006L14.6651 14.8301L14.6651 14.8301L14.5942 14.9006ZM12.0282 14.9006L12.099 14.9713L12.0991 14.9711L12.0282 14.9006ZM11.1527 15.7779L11.099 15.8623L11.1668 15.9054L11.2235 15.8486L11.1527 15.7779ZM8.42972 13.5877L8.50063 13.5172L8.50052 13.5171L8.42972 13.5877ZM6.24408 10.8591L6.1733 10.7884L6.1167 10.8452L6.15971 10.9128L6.24408 10.8591ZM7.11954 9.9818L7.04888 9.91104L7.04876 9.91116L7.11954 9.9818ZM7.65229 8.69613H7.75229H7.65229ZM7.11954 7.41045L7.19021 7.33969L7.1902 7.33969L7.11954 7.41045ZM5.41088 5.70429L5.33935 5.77418L5.34022 5.77505L5.41088 5.70429ZM4.13693 5.17187L4.13669 5.27187L4.1375 5.27187L4.13693 5.17187ZM2.85091 5.70429L2.92143 5.77519L2.92173 5.77488L2.85091 5.70429ZM2.02978 6.52107L1.9592 6.45011L1.95649 6.45304L2.02978 6.52107ZM1.0396 9.69744L1.13941 9.68894L1.13858 9.68315L1.0396 9.69744ZM12.3119 20.9932L12.3024 21.0928L12.3066 21.0931L12.3119 20.9932ZM12.8191 20.9932L12.8233 20.8928L12.8138 20.8934L12.8191 20.9932ZM15.4817 20.001L15.5503 20.0738L15.5528 20.0714L15.4817 20.001ZM16.2968 19.1781L16.2261 19.1075L16.2258 19.1078L16.2968 19.1781ZM16.8281 17.8894L16.7281 17.8889L16.7281 17.8897L16.8281 17.8894ZM16.2968 16.6129L16.2259 16.6834L16.2268 16.6842L16.2968 16.6129ZM15.4455 18.3251L15.516 18.396L15.5165 18.3954L15.4455 18.3251ZM14.6244 19.1418L14.6887 19.2189L14.6949 19.2127L14.6244 19.1418ZM12.4146 19.7469L12.4307 19.6479L12.4232 19.6472L12.4146 19.7469ZM2.24714 9.59458L2.34693 9.58509L2.34578 9.57815L2.24714 9.59458ZM2.85091 7.3802L2.78103 7.3079L2.77428 7.31595L2.85091 7.3802ZM3.70222 6.55737L3.77172 6.62928L3.77271 6.62829L3.70222 6.55737ZM4.13089 6.38191L4.13031 6.48192L4.13147 6.48191L4.13089 6.38191ZM4.55957 6.55737L4.63073 6.4871L4.63006 6.48644L4.55957 6.55737ZM6.26823 8.28774L6.19708 8.358L6.19724 8.35816L6.26823 8.28774ZM6.4438 8.71428H6.3438H6.4438ZM6.26823 9.14082L6.33902 9.21146L6.33923 9.21124L6.26823 9.14082ZM5.0607 10.3509L5.13131 10.4217L5.13148 10.4215L5.0607 10.3509ZM4.96409 11.0829L4.87751 11.133L4.87782 11.1335L4.96409 11.0829ZM7.57841 14.459L7.64943 14.3886L7.64896 14.3881L7.57841 14.459ZM10.9474 17.0787L10.8967 17.1649L10.8972 17.1652L10.9474 17.0787ZM11.678 16.9819L11.6072 16.9113L11.607 16.9115L11.678 16.9819ZM12.8855 15.7719L12.815 15.701L12.8147 15.7012L12.8855 15.7719ZM13.7368 15.7719L13.8076 15.7012L13.8074 15.701L13.7368 15.7719ZM15.4455 17.4841L15.5166 17.4137L15.5163 17.4134L15.4455 17.4841ZM15.6206 17.9136L15.7206 17.9161L15.7206 17.9142L15.6206 17.9136ZM7.96351 3.35828L7.88159 3.30093L7.67513 3.59578L8.0041 3.44968L7.96351 3.35828ZM8.9407 1.96271L8.85879 1.90535V1.90535L8.9407 1.96271ZM7.93774 1.26042L8.01965 1.31778L7.93774 1.26042ZM6.18747 3.76006L6.26938 3.81742L6.18747 3.76006ZM6.3376 4.61139L6.39508 4.52956L6.39508 4.52956L6.3376 4.61139ZM8.84228 6.371L8.78479 6.45283L8.7848 6.45283L8.84228 6.371ZM9.69441 6.22296L9.77621 6.28049L9.77634 6.2803L9.69441 6.22296ZM9.69511 6.22196L9.6132 6.1646L9.61318 6.16462L9.69511 6.22196ZM9.54498 5.37064L9.60246 5.28881L9.60246 5.28881L9.54498 5.37064ZM8.34631 4.52871L8.30413 4.43804L8.1472 4.51106L8.28883 4.61054L8.34631 4.52871ZM17.4703 15.3972L17.3884 15.3398L17.3884 15.3398L17.4703 15.3972ZM18.4732 16.0995L18.5552 16.1568L18.5552 16.1568L18.4732 16.0995ZM14.6651 14.8301C14.4875 14.6516 14.2765 14.5099 14.0442 14.4132L13.9674 14.5979C14.1754 14.6844 14.3643 14.8113 14.5233 14.9711L14.6651 14.8301ZM14.0442 14.4132C13.8119 14.3165 13.5628 14.2668 13.3112 14.2668V14.4668C13.5364 14.4668 13.7594 14.5113 13.9674 14.5979L14.0442 14.4132ZM13.3112 14.2668C13.0596 14.2668 12.8105 14.3165 12.5782 14.4132L12.655 14.5979C12.863 14.5113 13.086 14.4668 13.3112 14.4668V14.2668ZM12.5782 14.4132C12.3458 14.5099 12.1348 14.6516 11.9573 14.8301L12.0991 14.9711C12.2581 14.8113 12.447 14.6844 12.655 14.5979L12.5782 14.4132ZM11.9574 14.83L11.0819 15.7073L11.2235 15.8486L12.099 14.9713L11.9574 14.83ZM11.2064 15.6935C10.2269 15.0706 9.31945 14.3407 8.50063 13.5172L8.35881 13.6582C9.18806 14.4922 10.1071 15.2314 11.099 15.8623L11.2064 15.6935ZM8.50052 13.5171C7.68038 12.6949 6.95206 11.7857 6.32845 10.8054L6.15971 10.9128C6.7911 11.9053 7.52852 12.8259 8.35892 13.6584L8.50052 13.5171ZM6.31487 10.9297L7.19033 10.0524L7.04876 9.91116L6.1733 10.7884L6.31487 10.9297ZM7.19021 10.0526C7.36838 9.87463 7.50974 9.66322 7.60619 9.43046L7.42143 9.3539C7.33504 9.56238 7.20843 9.75171 7.04888 9.91104L7.19021 10.0526ZM7.60619 9.43046C7.70264 9.19769 7.75229 8.94815 7.75229 8.69613H7.55229C7.55229 8.92188 7.50782 9.14541 7.42143 9.3539L7.60619 9.43046ZM7.75229 8.69613C7.75229 8.4441 7.70264 8.19456 7.60619 7.96179L7.42143 8.03835C7.50782 8.24684 7.55229 8.47037 7.55229 8.69613H7.75229ZM7.60619 7.96179C7.50974 7.72903 7.36838 7.51762 7.19021 7.33969L7.04888 7.48121C7.20843 7.64054 7.33504 7.82987 7.42143 8.03835L7.60619 7.96179ZM7.1902 7.33969L5.48154 5.63353L5.34022 5.77505L7.04889 7.48122L7.1902 7.33969ZM5.4824 5.6344C5.30714 5.45504 5.09766 5.31281 4.86643 5.21617L4.7893 5.4007C4.99577 5.48699 5.18283 5.61399 5.33936 5.77418L5.4824 5.6344ZM4.86643 5.21617C4.63519 5.11953 4.38692 5.07045 4.13637 5.07187L4.1375 5.27187C4.36118 5.2706 4.58284 5.31441 4.7893 5.4007L4.86643 5.21617ZM4.13718 5.07187C3.88516 5.07125 3.63552 5.12057 3.40261 5.217L3.47912 5.40179C3.68762 5.31547 3.9111 5.27131 4.13669 5.27187L4.13718 5.07187ZM3.40261 5.217C3.1697 5.31342 2.95814 5.45504 2.78008 5.63369L2.92173 5.77488C3.08118 5.6149 3.27061 5.48811 3.47912 5.40179L3.40261 5.217ZM2.78038 5.63339L1.95926 6.45017L2.1003 6.59197L2.92143 5.77519L2.78038 5.63339ZM1.95649 6.45304C1.55494 6.88567 1.25527 7.40296 1.07948 7.96688L1.27041 8.0264C1.43733 7.49096 1.72186 6.99983 2.10308 6.5891L1.95649 6.45304ZM1.07948 7.96688C0.903685 8.5308 0.856241 9.12702 0.940628 9.71172L1.13858 9.68315C1.05845 9.12797 1.1035 8.56184 1.27041 8.0264L1.07948 7.96688ZM0.939963 9.70592C1.13587 12.0064 2.63759 14.7558 4.93548 17.0646L5.07723 16.9235C2.79856 14.634 1.32975 11.9261 1.13924 9.68895L0.939963 9.70592ZM4.93548 17.0646C7.23403 19.374 10.0076 20.872 12.3024 21.0928L12.3215 20.8937C10.088 20.6788 7.35524 19.2122 5.07723 16.9235L4.93548 17.0646ZM12.3066 21.0931C12.4791 21.1023 12.652 21.1023 12.8245 21.0931L12.8138 20.8934C12.6484 20.9022 12.4827 20.9022 12.3173 20.8934L12.3066 21.0931ZM12.8149 21.0931C13.3156 21.1142 13.8155 21.0349 14.2852 20.8598L14.2153 20.6724C13.7706 20.8382 13.2974 20.9132 12.8233 20.8933L12.8149 21.0931ZM14.2852 20.8598C14.7549 20.6848 15.185 20.4176 15.5503 20.0738L15.4132 19.9282C15.0673 20.2537 14.6601 20.5067 14.2153 20.6724L14.2852 20.8598ZM15.5528 20.0714L16.3679 19.2485L16.2258 19.1078L15.4107 19.9306L15.5528 20.0714ZM16.3676 19.2488C16.5458 19.0704 16.6871 18.8584 16.7833 18.6251L16.5984 18.5488C16.5123 18.7578 16.3857 18.9477 16.2261 19.1075L16.3676 19.2488ZM16.7833 18.6251C16.8795 18.3917 16.9287 18.1417 16.9281 17.8892L16.7281 17.8897C16.7287 18.1158 16.6846 18.3398 16.5984 18.5488L16.7833 18.6251ZM16.9281 17.89C16.9295 17.639 16.8806 17.3903 16.7842 17.1587L16.5995 17.2355C16.6857 17.4425 16.7294 17.6646 16.7281 17.8889L16.9281 17.89ZM16.7842 17.1587C16.6878 16.927 16.5458 16.7171 16.3669 16.5415L16.2268 16.6842C16.3866 16.8411 16.5134 17.0286 16.5995 17.2355L16.7842 17.1587ZM16.3677 16.5423L14.6651 14.8301L14.5233 14.9711L16.2259 16.6834L16.3677 16.5423ZM15.375 18.2542L14.5539 19.0709L14.6949 19.2127L15.516 18.396L15.375 18.2542ZM14.5603 19.0651C14.2677 19.3095 13.9261 19.488 13.5587 19.5886L13.6115 19.7815C14.0066 19.6733 14.3739 19.4813 14.6885 19.2186L14.5603 19.0651ZM13.5587 19.5886C13.1913 19.6892 12.8066 19.7095 12.4307 19.6482L12.3985 19.8456C12.8027 19.9115 13.2164 19.8896 13.6115 19.7815L13.5587 19.5886ZM12.4232 19.6472C10.4935 19.4806 8.01472 18.1064 5.95864 16.0461L5.81707 16.1874C7.89077 18.2654 10.4111 19.6743 12.406 19.8465L12.4232 19.6472ZM5.95864 16.0461C3.90252 13.9857 2.53081 11.5195 2.34669 9.58511L2.14759 9.60406C2.3378 11.6023 3.74342 14.1094 5.81707 16.1874L5.95864 16.0461ZM2.34578 9.57815C2.28304 9.20149 2.30256 8.81567 2.403 8.4473L2.21005 8.39469C2.10201 8.79091 2.08102 9.20588 2.1485 9.61102L2.34578 9.57815ZM2.403 8.4473C2.50344 8.07894 2.6824 7.73679 2.92753 7.44445L2.77428 7.31595C2.51057 7.63044 2.31808 7.99848 2.21005 8.39469L2.403 8.4473ZM2.9204 7.4521L3.77172 6.62927L3.63272 6.48547L2.78141 7.3083L2.9204 7.4521ZM3.77271 6.62829C3.8198 6.5815 3.87562 6.54449 3.93698 6.51937L3.86122 6.33428C3.77546 6.36938 3.69747 6.42109 3.63172 6.48644L3.77271 6.62829ZM3.93698 6.51937C3.99835 6.49426 4.06404 6.48153 4.13031 6.48191L4.13147 6.28192C4.03882 6.28138 3.94698 6.29917 3.86122 6.33428L3.93698 6.51937ZM4.13147 6.48191C4.19774 6.48153 4.26344 6.49426 4.3248 6.51937L4.40056 6.33428C4.3148 6.29917 4.22296 6.28138 4.13031 6.28192L4.13147 6.48191ZM4.3248 6.51937C4.38617 6.54449 4.44199 6.5815 4.48907 6.62829L4.63006 6.48644C4.56431 6.42109 4.48632 6.36938 4.40056 6.33428L4.3248 6.51937ZM4.48841 6.62763L6.19708 8.358L6.33939 8.21747L4.63072 6.48711L4.48841 6.62763ZM6.19724 8.35816C6.29109 8.45277 6.3438 8.58079 6.3438 8.71428H6.5438C6.5438 8.52809 6.47028 8.34942 6.33923 8.21731L6.19724 8.35816ZM6.3438 8.71428C6.3438 8.84776 6.29109 8.97578 6.19724 9.07039L6.33923 9.21124C6.47028 9.07913 6.5438 8.90047 6.5438 8.71428H6.3438ZM6.19745 9.07018L4.98991 10.2802L5.13148 10.4215L6.33902 9.21145L6.19745 9.07018ZM4.99009 10.2801C4.87996 10.3899 4.80923 10.5331 4.78887 10.6873L4.98715 10.7135C5.00175 10.6029 5.05245 10.5003 5.13131 10.4217L4.99009 10.2801ZM4.78887 10.6873C4.76852 10.8416 4.79967 10.9983 4.87751 11.133L5.05067 11.0329C4.9949 10.9364 4.97256 10.8241 4.98715 10.7135L4.78887 10.6873ZM4.87782 11.1335C5.60511 12.3742 6.48909 13.5158 7.50786 14.5298L7.64896 14.3881C6.64237 13.3861 5.76897 12.2583 5.05036 11.0324L4.87782 11.1335ZM7.50739 14.5294C8.51936 15.5503 9.65854 16.4361 10.8967 17.1649L10.9982 16.9925C9.77483 16.2725 8.6493 15.3972 7.64943 14.3886L7.50739 14.5294ZM10.8972 17.1652C11.0317 17.2432 11.1882 17.2745 11.3423 17.2541L11.316 17.0558C11.2058 17.0704 11.0939 17.0481 10.9976 16.9922L10.8972 17.1652ZM11.3423 17.2541C11.4964 17.2337 11.6394 17.1627 11.749 17.0524L11.607 16.9115C11.5286 16.9905 11.4262 17.0412 11.316 17.0558L11.3423 17.2541ZM11.7488 17.0526L12.9563 15.8425L12.8147 15.7012L11.6072 16.9113L11.7488 17.0526ZM12.9561 15.8427C13.0505 15.7487 13.1782 15.6959 13.3112 15.6959V15.4959C13.1252 15.4959 12.9468 15.5697 12.815 15.701L12.9561 15.8427ZM13.3112 15.6959C13.4442 15.6959 13.5719 15.7487 13.6663 15.8427L13.8074 15.701C13.6756 15.5697 13.4972 15.4959 13.3112 15.4959V15.6959ZM13.6661 15.8425L15.3747 17.5547L15.5163 17.4134L13.8076 15.7012L13.6661 15.8425ZM15.3744 17.5544C15.4211 17.6016 15.4581 17.6576 15.4832 17.7191L15.6684 17.6436C15.6334 17.5577 15.5818 17.4796 15.5166 17.4137L15.3744 17.5544ZM15.4832 17.7191C15.5083 17.7807 15.521 17.8466 15.5206 17.9131L15.7206 17.9142C15.7211 17.8215 15.7034 17.7295 15.6684 17.6436L15.4832 17.7191ZM15.5206 17.9112C15.5175 18.0402 15.4651 18.1631 15.3745 18.2547L15.5165 18.3954C15.6432 18.2676 15.7162 18.0961 15.7206 17.9161L15.5206 17.9112ZM8.04542 3.41564L9.02262 2.02007L8.85879 1.90535L7.88159 3.30093L8.04542 3.41564ZM9.02262 2.02007C9.13084 1.8655 9.17312 1.67424 9.1402 1.48837L8.94326 1.52325C8.96693 1.65688 8.93653 1.79432 8.85879 1.90535L9.02262 2.02007ZM9.1402 1.48837C9.10728 1.3025 9.00186 1.13725 8.84718 1.02894L8.73246 1.19277C8.84378 1.27072 8.91959 1.38961 8.94326 1.52325L9.1402 1.48837ZM8.84718 1.02894C8.69249 0.92063 8.50116 0.878089 8.31524 0.910723L8.34982 1.10771C8.4835 1.08425 8.62114 1.11483 8.73246 1.19277L8.84718 1.02894ZM8.31524 0.910723C8.12932 0.943358 7.96405 1.0485 7.85582 1.20307L8.01965 1.31778C8.09739 1.20675 8.21615 1.13117 8.34982 1.10771L8.31524 0.910723ZM7.85582 1.20307L6.10555 3.70271L6.26938 3.81742L8.01965 1.31778L7.85582 1.20307ZM6.10555 3.70271C5.99743 3.85712 5.95513 4.04817 5.98788 4.23388L6.18484 4.19915C6.16129 4.06563 6.19172 3.92834 6.26938 3.81742L6.10555 3.70271ZM5.98788 4.23388C6.02063 4.41959 6.12575 4.58478 6.28012 4.69322L6.39508 4.52956C6.28399 4.45152 6.20839 4.33268 6.18484 4.19915L5.98788 4.23388ZM6.28011 4.69321L8.78479 6.45283L8.89976 6.28918L6.39508 4.52956L6.28011 4.69321ZM8.7848 6.45283C8.93927 6.56134 9.13047 6.60418 9.31638 6.57188L9.28215 6.37483C9.14847 6.39806 9.01092 6.36726 8.89976 6.28917L8.7848 6.45283ZM9.31638 6.57188C9.5023 6.53958 9.66771 6.43478 9.77621 6.28049L9.61261 6.16544C9.53467 6.27628 9.41582 6.35161 9.28215 6.37483L9.31638 6.57188ZM9.77634 6.2803L9.77704 6.2793L9.61318 6.16462L9.61248 6.16563L9.77634 6.2803ZM9.77703 6.27932C9.88515 6.12491 9.92745 5.93386 9.8947 5.74815L9.69774 5.78288C9.72129 5.9164 9.69086 6.05368 9.6132 6.1646L9.77703 6.27932ZM9.8947 5.74815C9.86195 5.56244 9.75683 5.39725 9.60246 5.28881L9.4875 5.45247C9.59859 5.5305 9.67419 5.64935 9.69774 5.78288L9.8947 5.74815ZM9.60246 5.28881L8.40379 4.44688L8.28883 4.61054L9.4875 5.45247L9.60246 5.28881ZM8.3885 4.61938C9.83305 3.94727 11.4598 3.77065 13.0166 4.11694L13.06 3.92171C11.4603 3.56587 9.78863 3.74735 8.30413 4.43804L8.3885 4.61938ZM13.0166 4.11694C14.5734 4.46324 15.973 5.31309 16.9986 6.53471L17.1517 6.40611C16.098 5.15083 14.6597 4.27755 13.06 3.92171L13.0166 4.11694ZM16.9986 6.53471C18.0241 7.75632 18.6181 9.28139 18.6886 10.8734L18.8884 10.8646C18.816 9.22855 18.2055 7.66139 17.1517 6.40611L16.9986 6.53471ZM18.6886 10.8734C18.7591 12.4654 18.302 14.0354 17.3884 15.3398L17.5522 15.4546C18.4911 14.114 18.9608 12.5006 18.8884 10.8646L18.6886 10.8734ZM17.3884 15.3398C17.2801 15.4944 17.2379 15.6857 17.2708 15.8715L17.4677 15.8367C17.444 15.703 17.4744 15.5656 17.5522 15.4546L17.3884 15.3398ZM17.2708 15.8715C17.3037 16.0574 17.4091 16.2227 17.5638 16.331L17.6785 16.1671C17.5672 16.0892 17.4914 15.9703 17.4677 15.8367L17.2708 15.8715ZM17.5638 16.331C17.7185 16.4393 17.9098 16.4818 18.0957 16.4492L18.0612 16.2522C17.9275 16.2757 17.7898 16.2451 17.6785 16.1671L17.5638 16.331ZM18.0957 16.4492C18.2817 16.4166 18.4469 16.3114 18.5552 16.1568L18.3913 16.0421C18.3136 16.1532 18.1948 16.2287 18.0612 16.2522L18.0957 16.4492ZM18.5552 16.1568C19.6407 14.6063 20.1875 12.7422 20.1118 10.8498L19.9119 10.8578C19.9859 12.7064 19.4518 14.5275 18.3913 16.0421L18.5552 16.1568ZM20.1118 10.8498C20.036 8.95751 19.342 7.14126 18.1359 5.67908L17.9816 5.80635C19.1599 7.23484 19.8379 9.00921 19.9119 10.8578L20.1118 10.8498ZM18.1359 5.67908C16.9298 4.21691 15.2781 3.18935 13.4336 2.7537L13.3876 2.94834C15.1896 3.37396 16.8033 4.37785 17.9816 5.80635L18.1359 5.67908ZM13.4336 2.7537C11.5891 2.31804 9.65346 2.49829 7.92292 3.26689L8.0041 3.44968C9.69466 2.69883 11.5857 2.52272 13.3876 2.94834L13.4336 2.7537Z" fill="currentColor"/>
</svg>
