<svg width="21" height="21" viewBox="0 0 21 21" xmlns="http://www.w3.org/2000/svg">
<path d="M16.8595 3H3.07825C1.91514 3 0.968872 3.94627 0.968872 5.10938V6.84943L8.70996 12.6074C9.08645 12.8874 9.52766 13.0274 9.96887 13.0274C10.4101 13.0274 10.8513 12.8874 11.2278 12.6074L18.9689 6.84943V5.10938C18.9689 3.94627 18.0226 3 16.8595 3ZM17.5626 6.14283L10.3885 11.479C10.1375 11.6657 9.80023 11.6657 9.54925 11.479L2.37512 6.14283V5.10938C2.37512 4.72167 2.69054 4.40625 3.07825 4.40625H16.8595C17.2472 4.40625 17.5626 4.72167 17.5626 5.10938V6.14283ZM17.5626 10.9013C17.5626 10.679 17.6677 10.4698 17.8461 10.3372C18.31 9.99212 18.9689 10.3232 18.9689 10.9013V15.5156C18.9689 16.6787 18.0226 17.625 16.8595 17.625H3.07825C1.91514 17.625 0.968872 16.6787 0.968872 15.5156V11.8013C0.968872 11.2232 1.62776 10.8921 2.09163 11.2372C2.27 11.3698 2.37512 11.579 2.37512 11.8013V15.5156C2.37512 15.9033 2.69054 16.2188 3.07825 16.2188H16.8595C17.2472 16.2188 17.5626 15.9033 17.5626 15.5156V10.9013Z" fill="currentColor"/>
</svg>
