<svg width="21" height="21" viewBox="0 0 21 21" xmlns="http://www.w3.org/2000/svg">
<path d="M17.368 3.65365C15.8411 1.44389 13.4213 0.17627 10.7295 0.17627C8.03765 0.17627 5.61785 1.44389 4.09101 3.65365C2.57167 5.85225 2.22085 8.63572 3.1507 11.0949C3.39941 11.7665 3.79476 12.4189 4.32296 13.0303L10.1971 19.9301C10.33 20.0863 10.5246 20.1763 10.7295 20.1763C10.9344 20.1763 11.129 20.0863 11.2619 19.9301L17.1344 13.0322C17.6649 12.4173 18.0598 11.7655 18.3064 11.0994C19.2381 8.63572 18.8873 5.85225 17.368 3.65365ZM16.9969 10.6096C16.8067 11.1236 16.4962 11.6317 16.0745 12.1205C16.0733 12.1217 16.0721 12.1229 16.0712 12.1243L10.7295 18.3984L5.38449 12.1203C4.96304 11.632 4.65253 11.1238 4.46046 10.6049C3.69148 8.57115 3.98331 6.26975 5.24136 4.449C6.50335 2.62244 8.50382 1.57486 10.7295 1.57486C12.9551 1.57486 14.9553 2.6224 16.2174 4.449C17.4757 6.26975 17.7677 8.57115 16.9969 10.6096Z" fill="currentColor"/>
<path d="M10.7294 4.32544C8.57023 4.32544 6.81335 6.08208 6.81335 8.24153C6.81335 10.401 8.57 12.1576 10.7294 12.1576C12.8889 12.1576 14.6455 10.401 14.6455 8.24153C14.6455 6.08231 12.8887 4.32544 10.7294 4.32544ZM10.7294 10.759C9.34132 10.759 8.21195 9.62962 8.21195 8.24149C8.21195 6.85337 9.34132 5.72399 10.7294 5.72399C12.1176 5.72399 13.2469 6.85337 13.2469 8.24149C13.2469 9.62962 12.1176 10.759 10.7294 10.759Z" fill="currentColor"/>
</svg>
