<svg width="21" height="21" viewBox="0 0 21 21" xmlns="http://www.w3.org/2000/svg">
<path d="M17.4387 12.0637C17.2473 11.8713 17.0199 11.7186 16.7696 11.6144C16.5192 11.5102 16.2507 11.4566 15.9796 11.4566C15.7085 11.4566 15.4401 11.5102 15.1897 11.6144C14.9393 11.7186 14.7119 11.8713 14.5206 12.0637L13.525 13.0614C12.404 12.3485 11.3655 11.5131 10.4284 10.5707C9.48986 9.62984 8.65643 8.58934 7.94283 7.46761L8.93842 6.46995C9.13045 6.27819 9.28281 6.05032 9.38678 5.79943C9.49074 5.54853 9.54426 5.27953 9.54426 5.00787C9.54426 4.7362 9.49074 4.4672 9.38678 4.21631C9.28281 3.96541 9.13045 3.73755 8.93842 3.54578L6.9953 1.60551C6.80664 1.41244 6.58117 1.25935 6.33229 1.15533C6.08341 1.05132 5.8162 0.998507 5.54655 1.00003C5.27498 0.999365 5.00596 1.05252 4.75497 1.15643C4.50398 1.26034 4.27597 1.41296 4.08406 1.60551L3.15027 2.53436C2.70519 3.0139 2.373 3.5873 2.17814 4.2124C1.98327 4.83751 1.93068 5.49842 2.02422 6.14657C2.24394 8.72672 3.93301 11.8298 6.53527 14.4443C9.13753 17.0589 12.2685 18.7446 14.8433 18.9923C15.0354 19.0026 15.2279 19.0026 15.42 18.9923C15.9743 19.0156 16.5276 18.9278 17.0476 18.734C17.5675 18.5403 18.0436 18.2445 18.448 17.8639L19.3749 16.9282C19.5671 16.7359 19.7194 16.5074 19.8231 16.2559C19.9268 16.0043 19.9798 15.7348 19.9792 15.4626C19.9807 15.1924 19.928 14.9247 19.8242 14.6753C19.7204 14.4259 19.5676 14.1999 19.3749 14.0109L17.4387 12.0637ZM18.4068 15.958L17.473 16.8869C17.1278 17.1752 16.7247 17.3859 16.2911 17.5046C15.8576 17.6233 15.4036 17.6473 14.96 17.5749C12.7285 17.3823 9.88594 15.7998 7.53773 13.4467C5.18951 11.0936 3.6103 8.26574 3.39745 6.02961C3.32341 5.58507 3.34645 5.12974 3.46498 4.69499C3.58352 4.26024 3.79473 3.85642 4.08406 3.51138L5.05219 2.57564C5.11634 2.51188 5.19243 2.46142 5.27609 2.42718C5.35974 2.39294 5.44932 2.37559 5.53968 2.37611C5.63004 2.37559 5.71962 2.39294 5.80328 2.42718C5.88693 2.46142 5.96302 2.51188 6.02718 2.57564L7.97029 4.54344C8.09817 4.67235 8.16995 4.84674 8.16995 5.02851C8.16995 5.21028 8.09817 5.38466 7.97029 5.51358L6.59707 6.88966C6.48961 6.99681 6.42056 7.13658 6.40069 7.28718C6.38082 7.43777 6.41124 7.59073 6.48721 7.72218C7.30935 9.12472 8.30861 10.4151 9.46024 11.5614C10.6042 12.7155 11.8919 13.7168 13.2915 14.5407C13.4227 14.6168 13.5754 14.6473 13.7256 14.6274C13.8759 14.6074 14.0154 14.5383 14.1223 14.4306L15.4956 13.0545C15.6242 12.9263 15.7982 12.8544 15.9796 12.8544C16.161 12.8544 16.335 12.9263 16.4637 13.0545L18.4068 15.0017C18.4704 15.0659 18.5208 15.1422 18.555 15.226C18.5891 15.3098 18.6064 15.3996 18.6059 15.4902C18.6016 15.6659 18.5304 15.8333 18.4068 15.958Z" fill="currentColor"/>
</svg>
