<svg width="21" height="21" viewBox="0 0 21 21" xmlns="http://www.w3.org/2000/svg">
<path d="M19.7559 1.0046C19.2967 0.545185 18.6276 0.384287 18.0098 0.584794L1.44984 5.9595C0.800463 6.17028 0.349215 6.72274 0.272184 7.40133C0.195153 8.08004 0.511167 8.71972 1.09695 9.0707C1.14007 9.09656 1.18562 9.11816 1.23284 9.13527L6.1915 10.9282L6.19634 16.2755C6.197 16.9776 6.62079 17.5941 7.2761 17.8461C7.92129 18.0963 8.6575 17.9282 9.13004 17.4039C9.13105 17.4027 9.13215 17.4015 9.13316 17.4004L10.8485 15.481L13.7281 19.6853C14.0793 20.2584 14.7248 20.5652 15.3817 20.4883C16.0603 20.4118 16.613 19.9608 16.8242 19.3112C16.8334 19.2827 16.8411 19.2538 16.847 19.2246L17.3727 16.6265C17.4583 16.2036 17.1848 15.7914 16.7619 15.7058C16.339 15.6202 15.9268 15.8937 15.8413 16.3166L15.3277 18.8541C15.3042 18.9018 15.2636 18.9292 15.2068 18.9356C15.1407 18.9429 15.0893 18.9177 15.055 18.8602C15.0467 18.8464 15.038 18.8328 15.029 18.8196L11.8387 14.1618L16.4173 5.67497C16.5833 5.36731 16.5247 4.98685 16.2738 4.74337C16.0228 4.49993 15.6408 4.45271 15.3383 4.6279L6.88911 9.51898L1.86323 7.70172C1.8319 7.66953 1.81897 7.62793 1.82472 7.57754C1.83229 7.51074 1.86847 7.46637 1.93218 7.4457L18.4921 2.071C18.5526 2.05147 18.6059 2.06428 18.6508 2.10924C18.6961 2.15455 18.709 2.2085 18.6892 2.26955C18.68 2.29799 18.6723 2.32686 18.6664 2.35611L16.6102 12.5172C16.5246 12.9401 16.7981 13.3523 17.2209 13.4379C17.6436 13.5237 18.056 13.25 18.1416 12.8271L20.1903 2.7035C20.3675 2.09897 20.2034 1.45229 19.7559 1.0046ZM13.7308 7.36387L10.264 13.7902L7.97001 16.3572C7.95254 16.3764 7.91325 16.4171 7.83708 16.3878C7.75899 16.3577 7.75895 16.2991 7.75891 16.2741L7.75399 10.8237L13.7308 7.36387Z" fill="currentColor"/>
</svg>
