<svg width="21" height="21" viewBox="0 0 21 21" xmlns="http://www.w3.org/2000/svg">
<path d="M10.5204 20.3418H10.5164C8.95602 20.3412 7.40894 19.9728 6.02252 19.274L1.74884 20.2461C1.48807 20.3053 1.21494 20.227 1.02512 20.0386C0.835297 19.8501 0.755188 19.5776 0.812561 19.3164L1.73862 15.1071C0.943024 13.6378 0.522949 12.0286 0.52066 10.433C0.520508 10.4275 0.520508 10.422 0.520508 10.4167C0.521576 7.77249 1.56726 5.28226 3.46469 3.40482C5.35785 1.53165 7.86349 0.5 10.5202 0.5C13.1829 0.501068 15.6845 1.53363 17.5652 3.40726C19.4719 5.30698 20.5214 7.79919 20.5205 10.4246C20.5197 12.4087 19.9248 14.3263 18.8001 15.9698C18.5564 16.326 18.0703 16.4171 17.7141 16.1734C17.3581 15.9297 17.2669 15.4435 17.5106 15.0874C18.4568 13.7047 18.9572 12.0921 18.958 10.424C18.9588 8.21713 18.0725 6.11829 16.4624 4.51413C14.8766 2.93408 12.7661 2.06342 10.5199 2.0625C5.87466 2.0625 2.09277 5.80243 2.08301 10.4026C2.08301 10.4077 2.08316 10.4126 2.08316 10.4174C2.08255 11.8414 2.48309 13.2852 3.2413 14.5927C3.33942 14.7619 3.37054 14.9617 3.32843 15.1526L2.60318 18.4492L5.9563 17.6864C6.14139 17.6445 6.33548 17.6712 6.50241 17.7617C7.72754 18.4268 9.11563 18.7787 10.5167 18.7793H10.5202C12.0438 18.7793 13.5401 18.3673 14.8471 17.588C15.2176 17.3669 15.6972 17.4882 15.9182 17.8589C16.1391 18.2295 16.0179 18.7089 15.6473 18.93C14.0984 19.8535 12.3255 20.3418 10.5202 20.3418H10.5204ZM8.31393 6.44604C8.14258 6.06641 7.96222 6.05344 7.79926 6.04688H7.36087C7.20828 6.04688 6.96048 6.10394 6.75098 6.33206C6.54132 6.56018 5.95035 7.11163 5.95035 8.23331C5.95035 9.35498 6.77005 10.439 6.88434 10.5912C6.99878 10.7432 8.46683 13.1186 10.7917 14.0324C12.7239 14.7918 13.1171 14.6408 13.5364 14.6026C13.9559 14.5648 14.8899 14.0513 15.0803 13.519C15.271 12.9867 15.271 12.5305 15.2138 12.4351C15.1567 12.3402 15.0042 12.2831 14.7754 12.1692C14.5465 12.0552 13.4255 11.4941 13.2158 11.4181C13.0062 11.3421 12.8537 11.3041 12.7011 11.5324C12.5486 11.7604 12.0993 12.2876 11.9658 12.4395C11.8325 12.592 11.6989 12.6109 11.4702 12.4969C11.2415 12.3825 10.5123 12.1376 9.6384 11.3611C8.95831 10.7567 8.48651 9.98608 8.353 9.75781C8.21948 9.52985 8.33865 9.40625 8.4534 9.29257C8.55609 9.19049 8.6951 9.05087 8.80954 8.91782C8.92368 8.78476 8.95633 8.6897 9.03247 8.53757C9.10876 8.38544 9.07062 8.25238 9.01355 8.13824C8.95633 8.02426 8.51718 6.89679 8.31378 6.44604" fill="currentColor"/>
</svg>
