<svg width="111" height="111" viewBox="0 0 111 111" fill="none" xmlns="http://www.w3.org/2000/svg">
<path d="M40 74C40 74 54 80 56 84C58 80 71 74 71 74H40Z" fill="#FFC700"/>
<circle cx="55.5" cy="45.5" r="32.5" fill="#FFC700"/>
<g filter="url(#filter0_d_108_492)">
<circle cx="55.5" cy="45.5" r="30.5" fill="white"/>
</g>
<path fill-rule="evenodd" clip-rule="evenodd" d="M43.6453 34V41.9764H44.5851V34.9398H65.8847V43.332C65.71 43.2838 65.5052 43.2597 65.2732 43.2597C65.0805 43.2597 64.9027 43.2777 64.7461 43.3139C64.5895 43.35 64.4358 43.4133 64.2852 43.5006C64.1979 43.5518 64.1075 43.6091 64.0201 43.6784C63.9328 43.7476 63.8394 43.826 63.746 43.9163C63.5804 43.6723 63.3996 43.5006 63.2068 43.4042C63.0141 43.3079 62.7701 43.2597 62.4749 43.2597C62.3032 43.2597 62.1465 43.2747 62.008 43.3048C61.8694 43.335 61.7308 43.3801 61.6013 43.4494C61.5049 43.5006 61.4085 43.5699 61.3061 43.6452C61.2037 43.7205 61.0983 43.8109 60.9868 43.9163V43.3771H60.1072V47.8081H60.9868V45.4315C60.9868 45.2477 60.9898 45.1152 60.9958 45.0339C61.0019 44.9495 61.0139 44.8802 61.029 44.817C61.035 44.7959 61.041 44.7718 61.044 44.7507C61.0501 44.7296 61.0591 44.7085 61.0681 44.6844C61.1645 44.4646 61.3151 44.2868 61.529 44.1513C61.7429 44.0187 61.9778 43.9525 62.2399 43.9525C62.5381 43.9525 62.743 44.0278 62.8514 44.1784C62.9598 44.329 63.0141 44.6091 63.0141 45.0188V47.8112H63.8936V45.4496C63.8936 45.2327 63.8997 45.07 63.9117 44.9586C63.9238 44.8471 63.9448 44.7447 63.978 44.6513C63.981 44.6393 63.987 44.6302 63.99 44.6182C63.993 44.6061 63.9991 44.5971 64.0021 44.585C64.0683 44.4133 64.1979 44.2688 64.3937 44.1483C64.5864 44.0278 64.7913 43.9645 65.0082 43.9525C65.0202 43.9525 65.0293 43.9525 65.0413 43.9525C65.0534 43.9525 65.0624 43.9525 65.0744 43.9525C65.3726 43.9525 65.5925 44.0308 65.7311 44.1904C65.8004 44.2688 65.8516 44.3682 65.8847 44.4887V47.8112H65.9389H66.8185H66.8246V34.006H43.6453V34ZM75.6083 43.3741H76.28V42.2867H77.1536V43.3741H78V44.0127H77.1536V46.7057C77.1536 46.9225 77.1897 47.0671 77.265 47.1364C77.3403 47.2087 77.4879 47.2449 77.7108 47.2449C77.75 47.2449 77.7952 47.2449 77.8434 47.2449C77.8946 47.2449 77.9458 47.2418 78 47.2358V47.8835C77.9548 47.8774 77.9126 47.8774 77.8705 47.8804C77.8283 47.8835 77.7861 47.8895 77.741 47.8925C77.6747 47.8985 77.6084 47.9015 77.5451 47.9045C77.4819 47.9076 77.4186 47.9076 77.3584 47.9076C76.9367 47.9076 76.6505 47.8202 76.5029 47.6455C76.3523 47.4708 76.28 47.1364 76.28 46.6454V44.0097H75.6083V43.3741ZM72.7466 43.3741H73.6292V44.1061C73.7949 43.8169 73.9786 43.6061 74.1805 43.4675C74.3823 43.3289 74.6112 43.2597 74.8673 43.2597C74.9275 43.2597 74.9877 43.2627 75.051 43.2687C75.1112 43.2747 75.1745 43.2838 75.2408 43.2928V44.1061C75.1956 44.1001 75.1595 44.0971 75.1323 44.094C75.1052 44.091 75.0781 44.091 75.048 44.091C75.0359 44.091 75.0239 44.091 75.0118 44.091C74.9968 44.091 74.9817 44.091 74.9667 44.091C74.4064 44.091 74.0449 44.2416 73.8822 44.5429C73.7196 44.8441 73.6383 45.1995 73.6383 45.6122V47.8051H72.7496V43.3741H72.7466ZM67.6409 44.7537C67.6529 44.57 67.671 44.4254 67.6981 44.3139C67.7252 44.2025 67.7674 44.094 67.8306 43.9977C67.8427 43.9796 67.8638 43.9615 67.8758 43.9434C67.8909 43.9254 67.9029 43.9013 67.921 43.8802C68.0957 43.6693 68.3337 43.5127 68.6229 43.4103C68.9151 43.3078 69.2645 43.2566 69.6741 43.2566C70.2495 43.2566 70.7194 43.353 71.0778 43.5428C71.4393 43.7356 71.617 44.1091 71.617 44.6634V46.7689C71.617 46.9346 71.6411 47.0521 71.6923 47.1214C71.7436 47.1906 71.8189 47.2238 71.9243 47.2238C71.9514 47.2238 71.9845 47.2208 72.0237 47.2208C72.0629 47.2178 72.1141 47.2147 72.1803 47.2087V47.7991C72.0689 47.8202 71.9785 47.8383 71.9092 47.8503C71.8399 47.8624 71.7737 47.8714 71.7134 47.8744C71.7014 47.8744 71.6893 47.8744 71.6773 47.8744C71.6622 47.8744 71.6502 47.8744 71.6411 47.8744C71.3851 47.8744 71.1953 47.8232 71.0688 47.7208C70.9423 47.6184 70.864 47.4467 70.8369 47.2087C70.5808 47.4467 70.3097 47.6244 70.0236 47.7419C69.7344 47.8594 69.4211 47.9166 69.0837 47.9166C68.5837 47.9166 68.1861 47.7961 67.8819 47.5581C67.5806 47.3202 67.43 47.0039 67.43 46.6093C67.43 46.0821 67.6559 45.7176 68.1078 45.5128C68.5596 45.311 69.0566 45.1785 69.5988 45.1092C69.7585 45.0881 69.9211 45.07 70.0808 45.055C70.2404 45.0399 70.3941 45.0218 70.5387 45.0098C70.5778 45.0068 70.617 45.0098 70.6561 45.0068C70.6953 45.0037 70.7314 45.0007 70.7646 44.9947C70.7646 44.9766 70.7646 44.9616 70.7646 44.9435C70.7646 44.9254 70.7706 44.9074 70.7736 44.8833C70.7766 44.8682 70.7736 44.8501 70.7736 44.832C70.7736 44.814 70.7736 44.7989 70.7736 44.7808C70.7736 44.4766 70.6893 44.2597 70.5236 44.1302C70.3579 44.0037 70.0778 43.9404 69.6832 43.9404C69.3127 43.9404 69.0355 44.0037 68.8548 44.1302C68.6741 44.2567 68.5717 44.4615 68.5446 44.7447H67.6409V44.7537ZM70.7585 45.5941C70.376 45.6454 70.0627 45.6875 69.8157 45.7237C69.5687 45.7598 69.3669 45.796 69.2133 45.8351C69.153 45.8502 69.0958 45.8683 69.0416 45.8803C68.9904 45.8954 68.9392 45.9104 68.897 45.9255C68.7253 45.9857 68.5927 46.0701 68.5024 46.1785C68.412 46.287 68.3668 46.4105 68.3668 46.549C68.3668 46.7659 68.4482 46.9316 68.6108 47.0521C68.7735 47.1726 69.0024 47.2298 69.2976 47.2298C69.6952 47.2298 70.0386 47.1274 70.3278 46.9256C70.617 46.7237 70.7585 46.4797 70.7585 46.1996V45.5941ZM55.4292 46.3593H56.351C56.357 46.6695 56.4474 46.8924 56.6251 47.028C56.8028 47.1635 57.092 47.2328 57.4986 47.2328C57.827 47.2328 58.089 47.1756 58.2878 47.0581C58.4866 46.9406 58.586 46.79 58.586 46.6002C58.586 46.534 58.571 46.4797 58.5439 46.4346C58.5168 46.3894 58.4716 46.3442 58.4023 46.302C58.3662 46.2779 58.318 46.2568 58.2698 46.2358C58.2186 46.2147 58.1613 46.1876 58.0951 46.1604L56.4925 45.561C56.1702 45.4405 55.9413 45.302 55.8027 45.1453C55.6642 44.9917 55.5949 44.7929 55.5949 44.5549C55.5949 44.1663 55.7696 43.8531 56.122 43.6151C56.4745 43.3771 56.9323 43.2566 57.4986 43.2566C58.0077 43.2566 58.4475 43.3711 58.815 43.6031C59.1825 43.832 59.3662 44.1874 59.3662 44.6634H58.4776C58.4716 44.4254 58.3842 44.2477 58.2125 44.1272C58.0408 44.0067 57.7878 43.9495 57.4565 43.9495C57.1793 43.9495 56.9504 44.0007 56.7667 44.1001C56.5829 44.1995 56.4925 44.326 56.4925 44.4826C56.4925 44.567 56.5287 44.6393 56.601 44.7025C56.6733 44.7658 56.7817 44.829 56.9323 44.8802L58.4204 45.4044C58.4866 45.4285 58.5499 45.4496 58.6101 45.4737C58.6704 45.4978 58.7306 45.5219 58.7849 45.5429C59.068 45.6634 59.2608 45.796 59.3662 45.9345C59.4717 46.0731 59.5229 46.2599 59.5229 46.4918C59.5229 46.9135 59.3331 47.2539 58.9566 47.519C58.58 47.781 58.086 47.9136 57.4775 47.9136C56.8179 47.9136 56.3118 47.781 55.9564 47.516C55.6069 47.2479 55.4292 46.8623 55.4292 46.3593ZM47.8293 43.3741L49.1999 46.8894L50.5373 43.3741H51.4922L49.4469 48.2931C49.4228 48.3473 49.3987 48.4076 49.3716 48.4678C49.3445 48.5281 49.3083 48.5883 49.2812 48.6516C49.1667 48.8926 49.0222 49.1185 48.8324 49.3173C48.6456 49.5161 48.3866 49.6155 48.0582 49.6155C47.9739 49.6155 47.8865 49.6125 47.7932 49.6034C47.6998 49.5944 47.6034 49.5884 47.501 49.5733C47.4739 49.5703 47.4468 49.5613 47.4166 49.5583C47.3895 49.5522 47.3624 49.5462 47.3323 49.5402V48.8263C47.3443 48.8263 47.3534 48.8263 47.3624 48.8293C47.3714 48.8323 47.3805 48.8323 47.3925 48.8323C47.4648 48.8534 47.5371 48.8745 47.6124 48.8956C47.6877 48.9136 47.763 48.9257 47.8414 48.9257C47.9618 48.9257 48.0673 48.9076 48.1486 48.8685C48.2329 48.8293 48.3083 48.751 48.3806 48.6365C48.4287 48.5582 48.483 48.4588 48.5342 48.3323C48.5854 48.2088 48.6456 48.0582 48.7119 47.8804L46.8413 43.3771H47.8293V43.3741ZM44.5851 44.0127C44.7357 43.7717 44.9014 43.591 45.0821 43.4675C45.284 43.3289 45.5129 43.2597 45.7689 43.2597C45.8292 43.2597 45.8894 43.2627 45.9527 43.2687C46.0129 43.2747 46.0762 43.2838 46.1424 43.2928V44.1061C46.0973 44.1001 46.0611 44.0971 46.034 44.094C46.0069 44.091 45.9798 44.091 45.9497 44.091C45.9376 44.091 45.9256 44.091 45.9135 44.091C45.8985 44.091 45.8834 44.091 45.8683 44.091C45.308 44.091 44.9466 44.2416 44.7839 44.5429C44.6936 44.7116 44.6273 44.8953 44.5881 45.0941V56.2394H65.8877V49.1998H66.8276V57.1762H43.6483V43.3741H44.5279H44.5851V44.0127ZM42.6753 45.8351H38.9763C39.0034 46.29 39.139 46.6364 39.3799 46.8744C39.6209 47.1123 39.9673 47.2328 40.4131 47.2328C40.7565 47.2328 41.0367 47.1605 41.2536 47.0129C41.4704 46.8653 41.615 46.6454 41.6843 46.3532H42.6061C42.4856 46.8412 42.2265 47.2238 41.8319 47.5009C41.4373 47.778 40.9523 47.9166 40.377 47.9166C39.6571 47.9166 39.0878 47.7088 38.6721 47.2961C38.2564 46.8834 38.0485 46.3171 38.0485 45.5972C38.0485 44.8893 38.2654 44.323 38.6962 43.9013C39.1269 43.4795 39.7113 43.2687 40.4403 43.2687C41.2144 43.2687 41.7837 43.4826 42.1392 43.9073C42.4976 44.335 42.6753 44.8561 42.6753 45.4767C42.6753 45.4827 42.6753 45.4857 42.6753 45.4887C42.6753 45.4917 42.6753 45.4947 42.6753 45.5008C42.6753 45.5399 42.6753 45.5851 42.6753 45.6333C42.6814 45.6845 42.6784 45.7508 42.6753 45.8351ZM41.7837 45.1453C41.7566 44.7688 41.6211 44.4766 41.3801 44.2688C41.1391 44.0609 40.8228 43.9585 40.4282 43.9585C40.0246 43.9585 39.7023 44.0579 39.4613 44.2567C39.2203 44.4555 39.0697 44.7537 39.0094 45.1453H41.7837ZM34.0061 43.3741L35.3345 46.8744L36.6719 43.3741H37.6449L35.7411 47.8051H34.8525L33 43.3741H34.0061Z" fill="black"/>
<defs>
<filter id="filter0_d_108_492" x="0" y="0" width="111" height="111" filterUnits="userSpaceOnUse" color-interpolation-filters="sRGB">
<feFlood flood-opacity="0" result="BackgroundImageFix"/>
<feColorMatrix in="SourceAlpha" type="matrix" values="0 0 0 0 0 0 0 0 0 0 0 0 0 0 0 0 0 0 127 0" result="hardAlpha"/>
<feOffset dy="10"/>
<feGaussianBlur stdDeviation="12.5"/>
<feComposite in2="hardAlpha" operator="out"/>
<feColorMatrix type="matrix" values="0 0 0 0 0 0 0 0 0 0 0 0 0 0 0 0 0 0 0.05 0"/>
<feBlend mode="normal" in2="BackgroundImageFix" result="effect1_dropShadow_108_492"/>
<feBlend mode="normal" in="SourceGraphic" in2="effect1_dropShadow_108_492" result="shape"/>
</filter>
</defs>
</svg>
