<svg width="111" height="57" viewBox="0 0 111 57" fill="none" xmlns="http://www.w3.org/2000/svg">
<path fill-rule="evenodd" clip-rule="evenodd" d="M26.7058 0V19.498H29.0031V2.29734H81.0688V22.8114C80.6418 22.6936 80.1411 22.6347 79.5741 22.6347C79.1028 22.6347 78.6684 22.6789 78.2855 22.7673C77.9026 22.8556 77.5271 23.0102 77.1589 23.2238C76.9454 23.349 76.7245 23.4889 76.511 23.6582C76.2974 23.8276 76.0692 24.019 75.8409 24.2399C75.4359 23.6435 74.9941 23.2238 74.5229 22.9881C74.0516 22.7525 73.4552 22.6347 72.7336 22.6347C72.3139 22.6347 71.931 22.6715 71.5923 22.7452C71.2536 22.8188 70.9149 22.9292 70.5982 23.0986C70.3626 23.2238 70.127 23.3931 69.8766 23.5772C69.6263 23.7613 69.3686 23.9822 69.0961 24.2399V22.9219H66.9461V33.7533H69.0961V27.9436C69.0961 27.4945 69.1035 27.1705 69.1182 26.9717C69.1329 26.7655 69.1624 26.5962 69.1992 26.4415C69.214 26.39 69.2287 26.3311 69.236 26.2795C69.2508 26.228 69.2729 26.1764 69.295 26.1175C69.5306 25.58 69.8987 25.1456 70.4215 24.8143C70.9443 24.4903 71.5186 24.3283 72.1593 24.3283C72.8882 24.3283 73.3889 24.5124 73.654 24.8805C73.9191 25.2487 74.0516 25.9335 74.0516 26.9349V33.7606H76.2017V27.9878C76.2017 27.4577 76.2164 27.06 76.2459 26.7876C76.2753 26.5152 76.3269 26.2648 76.4079 26.0366C76.4152 26.0071 76.43 25.985 76.4373 25.9555C76.4447 25.9261 76.4594 25.904 76.4668 25.8746C76.6288 25.4549 76.9454 25.1014 77.424 24.8069C77.8952 24.5124 78.396 24.3577 78.9261 24.3283C78.9556 24.3283 78.9777 24.3283 79.0071 24.3283C79.0366 24.3283 79.0586 24.3283 79.0881 24.3283C79.8171 24.3283 80.3546 24.5197 80.6933 24.91C80.8626 25.1014 80.9878 25.3444 81.0688 25.6389V33.7606H81.2014H83.3514H83.3662V0.0147185H26.7058V0ZM104.837 22.9145H106.479V20.2564H108.615V22.9145H110.684V24.4755H108.615V31.0583C108.615 31.5885 108.703 31.9419 108.887 32.1113C109.071 32.288 109.432 32.3763 109.977 32.3763C110.073 32.3763 110.183 32.3763 110.301 32.3763C110.426 32.3763 110.551 32.369 110.684 32.3542V33.9373C110.573 33.9226 110.47 33.9226 110.367 33.93C110.264 33.9373 110.161 33.9521 110.051 33.9594C109.889 33.9742 109.727 33.9815 109.572 33.9889C109.417 33.9963 109.263 33.9963 109.116 33.9963C108.085 33.9963 107.385 33.7827 107.024 33.3556C106.656 32.9286 106.479 32.1113 106.479 30.911V24.4682H104.837V22.9145ZM97.8424 22.9145H99.9998V24.7038C100.405 23.9969 100.854 23.4815 101.347 23.1428C101.841 22.8041 102.4 22.6347 103.026 22.6347C103.173 22.6347 103.321 22.6421 103.475 22.6568C103.623 22.6715 103.777 22.6936 103.939 22.7157V24.7038C103.829 24.6891 103.74 24.6817 103.674 24.6743C103.608 24.667 103.542 24.667 103.468 24.667C103.438 24.667 103.409 24.667 103.38 24.667C103.343 24.667 103.306 24.667 103.269 24.667C101.9 24.667 101.016 25.0351 100.618 25.7715C100.221 26.5078 100.022 27.3767 100.022 28.3854V33.7459H97.8497V22.9145H97.8424ZM85.3616 26.2869C85.3911 25.8377 85.4352 25.4843 85.5015 25.2119C85.5678 24.9394 85.6709 24.6743 85.8255 24.4387C85.8549 24.3945 85.9065 24.3504 85.936 24.3062C85.9728 24.262 86.0022 24.2031 86.0464 24.1515C86.4735 23.6361 87.0552 23.2532 87.762 23.0029C88.4763 22.7525 89.3304 22.6274 90.3318 22.6274C91.7382 22.6274 92.8869 22.863 93.7631 23.3269C94.6467 23.7981 95.0811 24.7112 95.0811 26.066V31.2129C95.0811 31.6179 95.14 31.9051 95.2652 32.0744C95.3904 32.2438 95.5745 32.3248 95.8322 32.3248C95.8985 32.3248 95.9795 32.3174 96.0752 32.3174C96.1709 32.3101 96.2961 32.3027 96.4581 32.288V33.7312C96.1856 33.7827 95.9647 33.8269 95.7954 33.8564C95.626 33.8858 95.464 33.9079 95.3168 33.9152C95.2873 33.9152 95.2579 33.9152 95.2284 33.9152C95.1916 33.9152 95.1621 33.9152 95.1401 33.9152C94.5142 33.9152 94.0503 33.7901 93.741 33.5397C93.4318 33.2894 93.2403 32.8697 93.1741 32.288C92.5482 32.8697 91.8855 33.3041 91.186 33.5913C90.4791 33.8784 89.7133 34.0183 88.8886 34.0183C87.6663 34.0183 86.6944 33.7238 85.9507 33.1421C85.2144 32.5604 84.8462 31.7873 84.8462 30.8227C84.8462 29.5341 85.3984 28.6431 86.5029 28.1424C87.6074 27.6491 88.8224 27.3251 90.1478 27.1558C90.538 27.1042 90.9356 27.0601 91.3259 27.0232C91.7161 26.9864 92.0917 26.9422 92.4451 26.9128C92.5408 26.9054 92.6365 26.9128 92.7323 26.9054C92.828 26.8981 92.9163 26.8907 92.9973 26.876C92.9973 26.8318 92.9973 26.795 92.9973 26.7508C92.9973 26.7066 93.0121 26.6624 93.0194 26.6035C93.0268 26.5667 93.0194 26.5225 93.0194 26.4783C93.0194 26.4342 93.0194 26.3974 93.0194 26.3532C93.0194 25.6095 92.8132 25.0793 92.4083 24.7627C92.0033 24.4534 91.3185 24.2988 90.3539 24.2988C89.4482 24.2988 88.7708 24.4534 88.329 24.7627C87.8872 25.072 87.6369 25.5727 87.5706 26.2648H85.3616V26.2869ZM92.9826 28.3412C92.0475 28.4664 91.2817 28.5695 90.6779 28.6579C90.0741 28.7462 89.5808 28.8346 89.2052 28.9303C89.058 28.9671 88.9181 29.0113 88.7855 29.0408C88.6604 29.0776 88.5352 29.1144 88.4321 29.1512C88.0124 29.2985 87.6884 29.5046 87.4675 29.7697C87.2466 30.0348 87.1362 30.3367 87.1362 30.6754C87.1362 31.2056 87.335 31.6105 87.7326 31.9051C88.1302 32.1996 88.6898 32.3395 89.4114 32.3395C90.3834 32.3395 91.2228 32.0892 91.9297 31.5958C92.6365 31.1025 92.9826 30.5061 92.9826 29.8213V28.3412ZM55.5109 30.2115H57.7641C57.7788 30.9699 57.9997 31.5148 58.4341 31.8462C58.8685 32.1775 59.5754 32.3469 60.5695 32.3469C61.3721 32.3469 62.0127 32.207 62.4986 31.9198C62.9846 31.6326 63.2276 31.2645 63.2276 30.8006C63.2276 30.6386 63.1908 30.5061 63.1245 30.3956C63.0583 30.2852 62.9478 30.1747 62.7784 30.0716C62.6901 30.0127 62.5723 29.9612 62.4545 29.9096C62.3293 29.8581 62.1894 29.7918 62.0274 29.7255L58.1101 28.2603C57.3223 27.9657 56.7626 27.627 56.4239 27.2441C56.0852 26.8686 55.9159 26.3826 55.9159 25.8009C55.9159 24.8511 56.3429 24.0853 57.2044 23.5036C58.0659 22.9219 59.1852 22.6274 60.5695 22.6274C61.8139 22.6274 62.8889 22.9072 63.7872 23.4741C64.6855 24.0337 65.1347 24.9026 65.1347 26.066H62.9625C62.9478 25.4843 62.7343 25.0499 62.3146 24.7553C61.8948 24.4608 61.2763 24.3209 60.4664 24.3209C59.7889 24.3209 59.2294 24.4461 58.7802 24.6891C58.331 24.9321 58.1101 25.2413 58.1101 25.6242C58.1101 25.8304 58.1985 26.0071 58.3752 26.1617C58.5519 26.3163 58.817 26.471 59.1852 26.5962L62.8226 27.8774C62.9846 27.9363 63.1392 27.9878 63.2865 28.0467C63.4338 28.1056 63.581 28.1645 63.7136 28.2161C64.4057 28.5106 64.877 28.8346 65.1347 29.1733C65.3924 29.512 65.5176 29.9685 65.5176 30.5355C65.5176 31.5664 65.0537 32.3984 64.1333 33.0464C63.2129 33.687 62.0053 34.011 60.5179 34.011C58.9054 34.011 57.6683 33.687 56.7995 33.039C55.9453 32.3837 55.5109 31.4412 55.5109 30.2115ZM36.9333 22.9145L40.2836 31.5075L43.5529 22.9145H45.8871L40.8874 34.9388C40.8285 35.0713 40.7696 35.2186 40.7033 35.3658C40.6371 35.5131 40.5487 35.6604 40.4824 35.815C40.2026 36.404 39.8492 36.9563 39.3853 37.4423C38.9288 37.9282 38.2956 38.1712 37.493 38.1712C37.2868 38.1712 37.0732 38.1639 36.845 38.1418C36.6167 38.1197 36.3811 38.105 36.1307 38.0681C36.0645 38.0608 35.9982 38.0387 35.9246 38.0313C35.8583 38.0166 35.792 38.0019 35.7184 37.9871V36.242C35.7479 36.242 35.77 36.2421 35.792 36.2494C35.8141 36.2568 35.8362 36.2568 35.8657 36.2568C36.0424 36.3083 36.2191 36.3599 36.4032 36.4114C36.5873 36.4556 36.7714 36.485 36.9628 36.485C37.2573 36.485 37.515 36.4409 37.7138 36.3451C37.92 36.2494 38.1041 36.058 38.2808 35.7782C38.3986 35.5867 38.5312 35.3437 38.6563 35.0345C38.7815 34.7326 38.9288 34.3644 39.0908 33.93L34.5182 22.9219H36.9333V22.9145ZM29.0031 24.4755C29.3713 23.8865 29.7762 23.4447 30.218 23.1428C30.7114 22.8041 31.271 22.6347 31.8969 22.6347C32.0441 22.6347 32.1914 22.6421 32.346 22.6568C32.4933 22.6715 32.6479 22.6936 32.8099 22.7157V24.7038C32.6995 24.6891 32.6111 24.6817 32.5448 24.6743C32.4786 24.667 32.4123 24.667 32.3387 24.667C32.3092 24.667 32.2798 24.667 32.2503 24.667C32.2135 24.667 32.1767 24.667 32.1398 24.667C30.7703 24.667 29.8867 25.0351 29.4891 25.7715C29.2682 26.1838 29.1062 26.633 29.0104 27.1189V54.3631H81.0762V37.1551H83.3735V56.653H26.7131V22.9145H28.8632H29.0031V24.4755ZM24.3348 28.9303H15.2927C15.3589 30.0422 15.6903 30.8889 16.2794 31.4706C16.8684 32.0523 17.7152 32.3469 18.805 32.3469C19.6444 32.3469 20.3292 32.1702 20.8593 31.8094C21.3895 31.4486 21.7429 30.911 21.9123 30.1968H24.1654C23.8709 31.3897 23.2376 32.3248 22.2731 33.0022C21.3085 33.6796 20.123 34.0183 18.7166 34.0183C16.9568 34.0183 15.5651 33.5103 14.549 32.5015C13.5328 31.4927 13.0248 30.1084 13.0248 28.3486C13.0248 26.6182 13.5549 25.2339 14.6079 24.2031C15.6608 23.1722 17.0893 22.6568 18.8712 22.6568C20.7636 22.6568 22.1553 23.1796 23.0241 24.2178C23.9004 25.2634 24.3348 26.5373 24.3348 28.0541C24.3348 28.0688 24.3348 28.0762 24.3348 28.0835C24.3348 28.0909 24.3348 28.0983 24.3348 28.113C24.3348 28.2087 24.3348 28.3192 24.3348 28.437C24.3495 28.5621 24.3421 28.7241 24.3348 28.9303ZM22.1552 27.2441C22.089 26.3237 21.7576 25.6095 21.1686 25.1014C20.5795 24.5933 19.8064 24.343 18.8418 24.343C17.8551 24.343 17.0672 24.586 16.4782 25.0719C15.8891 25.5579 15.5209 26.2869 15.3737 27.2441H22.1552ZM3.14326 22.9145L6.39047 31.4706L9.65977 22.9145H12.0381L7.38452 33.7459H5.21234L0.683929 22.9145H3.14326Z" fill="black"/>
</svg>
