<svg width="0" height="0" class="hidden">
  <symbol xmlns="http://www.w3.org/2000/svg" viewBox="0 0 23 11" id="ic_arrow_right">
    <path d="M22.4713 5.02043L17.8047 0.353767C17.6789 0.232329 17.5105 0.165132 17.3357 0.166651C17.1609 0.16817 16.9937 0.238283 16.8701 0.361888C16.7465 0.485494 16.6764 0.652702 16.6749 0.8275C16.6734 1.0023 16.7406 1.1707 16.862 1.29643L20.3907 4.8251H0.666667C0.489856 4.8251 0.320286 4.89534 0.195262 5.02036C0.0702377 5.14539 0 5.31496 0 5.49177C0 5.66858 0.0702377 5.83815 0.195262 5.96317C0.320286 6.0882 0.489856 6.15843 0.666667 6.15843H20.3907L16.862 9.6871C16.7983 9.7486 16.7475 9.82216 16.7126 9.9035C16.6777 9.98483 16.6593 10.0723 16.6585 10.1608C16.6577 10.2494 16.6746 10.3371 16.7081 10.4191C16.7416 10.501 16.7911 10.5754 16.8537 10.638C16.9163 10.7006 16.9908 10.7501 17.0727 10.7837C17.1546 10.8172 17.2424 10.834 17.3309 10.8333C17.4195 10.8325 17.5069 10.8141 17.5883 10.7792C17.6696 10.7442 17.7432 10.6934 17.8047 10.6298L22.4713 5.9631C22.5963 5.83808 22.6665 5.66854 22.6665 5.49177C22.6665 5.31499 22.5963 5.14545 22.4713 5.02043Z" fill="currentColor"></path>
  </symbol>
  <symbol xmlns="http://www.w3.org/2000/svg" viewBox="0 0 21 22" id="ic_callback">
    <path d="M14.5942 14.9006C14.4259 14.7314 14.226 14.5972 14.0058 14.5056C13.7856 14.4139 13.5496 14.3668 13.3112 14.3668C13.0728 14.3668 12.8367 14.4139 12.6166 14.5056C12.3964 14.5972 12.1965 14.7314 12.0282 14.9006L11.1527 15.7779C10.167 15.151 9.25375 14.4165 8.42972 13.5877C7.60445 12.7604 6.87158 11.8455 6.24408 10.8591L7.11954 9.9818C7.28841 9.81317 7.42239 9.6128 7.51381 9.39218C7.60523 9.17155 7.65229 8.93501 7.65229 8.69613C7.65229 8.45724 7.60523 8.2207 7.51381 8.00007C7.42239 7.77945 7.28841 7.57908 7.11954 7.41045L5.41088 5.70429C5.24498 5.53451 5.04672 5.3999 4.82787 5.30843C4.60901 5.21697 4.37405 5.17053 4.13693 5.17187C3.89813 5.17128 3.66157 5.21802 3.44086 5.30939C3.22016 5.40077 3.01966 5.53497 2.85091 5.70429L2.02978 6.52107C1.6384 6.94275 1.3463 7.44696 1.17495 7.99664C1.00359 8.54632 0.957345 9.12749 1.0396 9.69744C1.23281 11.9663 2.71808 14.6949 5.00636 16.994C7.29464 19.2931 10.0478 20.7754 12.3119 20.9932C12.4809 21.0023 12.6502 21.0023 12.8191 20.9932C13.3065 21.0137 13.793 20.9365 14.2503 20.7661C14.7075 20.5957 15.1261 20.3356 15.4817 20.001L16.2968 19.1781C16.4658 19.009 16.5997 18.8081 16.6909 18.587C16.7821 18.3658 16.8287 18.1287 16.8281 17.8894C16.8295 17.6518 16.7831 17.4164 16.6919 17.1971C16.6006 16.9778 16.4662 16.7791 16.2968 16.6129L14.5942 14.9006ZM15.4455 18.3251L14.6244 19.1418C14.3208 19.3954 13.9664 19.5806 13.5851 19.685C13.2039 19.7894 12.8047 19.8105 12.4146 19.7469C10.4523 19.5775 7.95274 18.1859 5.88786 16.1167C3.82297 14.0476 2.43431 11.5609 2.24714 9.59458C2.18203 9.20369 2.20229 8.80329 2.30652 8.421C2.41076 8.03871 2.59649 7.68361 2.85091 7.3802L3.70222 6.55737C3.75863 6.5013 3.82554 6.45693 3.8991 6.42682C3.97267 6.39671 4.05143 6.38145 4.13089 6.38191C4.21035 6.38145 4.28912 6.39671 4.36268 6.42682C4.43625 6.45693 4.50315 6.5013 4.55957 6.55737L6.26823 8.28774C6.38068 8.40109 6.4438 8.55444 6.4438 8.71428C6.4438 8.87411 6.38068 9.02746 6.26823 9.14082L5.0607 10.3509C4.9662 10.4451 4.90549 10.568 4.88801 10.7004C4.87054 10.8328 4.89729 10.9673 4.96409 11.0829C5.68704 12.3162 6.56573 13.451 7.57841 14.459C8.58433 15.4738 9.71668 16.3543 10.9474 17.0787C11.0628 17.1457 11.197 17.1725 11.3292 17.155C11.4613 17.1374 11.584 17.0766 11.678 16.9819L12.8855 15.7719C12.9987 15.6592 13.1517 15.5959 13.3112 15.5959C13.4707 15.5959 13.6237 15.6592 13.7368 15.7719L15.4455 17.4841C15.5015 17.5406 15.5457 17.6077 15.5758 17.6814C15.6058 17.7551 15.6211 17.834 15.6206 17.9136C15.6168 18.0682 15.5542 18.2154 15.4455 18.3251Z"></path>
    <path d="M7.96351 3.35828L8.9407 1.96271C9.03368 1.82991 9.07003 1.66556 9.04173 1.50581C9.01344 1.34605 8.92282 1.20399 8.78982 1.11086C8.65682 1.01773 8.49233 0.981167 8.33253 1.00922C8.17273 1.03727 8.03072 1.12763 7.93774 1.26042L6.18747 3.76006C6.09457 3.89273 6.05821 4.0569 6.08636 4.21651C6.11451 4.37613 6.20487 4.51815 6.3376 4.61139L8.84228 6.371C8.97509 6.4643 9.13947 6.50112 9.29926 6.47336C9.45906 6.4456 9.60119 6.35553 9.69441 6.22296L9.69511 6.22196C9.788 6.0893 9.82437 5.92513 9.79622 5.76551C9.76807 5.60589 9.67771 5.46387 9.54498 5.37064L8.34631 4.52871C9.81084 3.84731 11.4601 3.66826 13.0383 4.01933C14.6165 4.3704 16.0355 5.23196 17.0752 6.47041C18.1148 7.70886 18.7171 9.25497 18.7885 10.869C18.8599 12.483 18.3966 14.0747 17.4703 15.3972C17.3773 15.53 17.3409 15.6944 17.3692 15.8541C17.3975 16.0139 17.4882 16.1559 17.6212 16.2491C17.7542 16.3422 17.9187 16.3787 18.0784 16.3507C18.2382 16.3226 18.3803 16.2323 18.4732 16.0995C19.5463 14.5669 20.0867 12.7243 20.0118 10.8538C19.937 8.98336 19.2509 7.18805 18.0587 5.74272C16.8665 4.29738 15.2339 3.28165 13.4106 2.85102C11.5874 2.42038 9.67406 2.59856 7.96351 3.35828Z"></path>
    <path d="M14.5942 14.9006C14.4259 14.7314 14.226 14.5972 14.0058 14.5056C13.7856 14.4139 13.5496 14.3668 13.3112 14.3668C13.0728 14.3668 12.8367 14.4139 12.6166 14.5056C12.3964 14.5972 12.1965 14.7314 12.0282 14.9006L11.1527 15.7779C10.167 15.151 9.25375 14.4165 8.42972 13.5877C7.60445 12.7604 6.87158 11.8455 6.24408 10.8591L7.11954 9.9818C7.28841 9.81317 7.42239 9.6128 7.51381 9.39218C7.60523 9.17155 7.65229 8.93501 7.65229 8.69613C7.65229 8.45724 7.60523 8.2207 7.51381 8.00007C7.42239 7.77945 7.28841 7.57908 7.11954 7.41045L5.41088 5.70429C5.24498 5.53451 5.04672 5.3999 4.82787 5.30843C4.60901 5.21697 4.37405 5.17053 4.13693 5.17187C3.89813 5.17128 3.66157 5.21802 3.44086 5.30939C3.22016 5.40077 3.01966 5.53497 2.85091 5.70429L2.02978 6.52107C1.6384 6.94275 1.3463 7.44696 1.17495 7.99664C1.00359 8.54632 0.957345 9.12749 1.0396 9.69744C1.23281 11.9663 2.71808 14.6949 5.00636 16.994C7.29464 19.2931 10.0478 20.7754 12.3119 20.9932C12.4809 21.0023 12.6502 21.0023 12.8191 20.9932C13.3065 21.0137 13.793 20.9365 14.2503 20.7661C14.7075 20.5957 15.1261 20.3356 15.4817 20.001L16.2968 19.1781C16.4658 19.009 16.5997 18.8081 16.6909 18.587C16.7821 18.3658 16.8287 18.1287 16.8281 17.8894C16.8295 17.6518 16.7831 17.4164 16.6919 17.1971C16.6006 16.9778 16.4662 16.7791 16.2968 16.6129L14.5942 14.9006ZM15.4455 18.3251L14.6244 19.1418C14.3208 19.3954 13.9664 19.5806 13.5851 19.685C13.2039 19.7894 12.8047 19.8105 12.4146 19.7469C10.4523 19.5775 7.95274 18.1859 5.88786 16.1167C3.82297 14.0476 2.43431 11.5609 2.24714 9.59458C2.18203 9.20369 2.20229 8.80329 2.30652 8.421C2.41076 8.03871 2.59649 7.68361 2.85091 7.3802L3.70222 6.55737C3.75863 6.5013 3.82554 6.45693 3.8991 6.42682C3.97267 6.39671 4.05143 6.38145 4.13089 6.38191C4.21035 6.38145 4.28912 6.39671 4.36268 6.42682C4.43625 6.45693 4.50315 6.5013 4.55957 6.55737L6.26823 8.28774C6.38068 8.40109 6.4438 8.55444 6.4438 8.71428C6.4438 8.87411 6.38068 9.02746 6.26823 9.14082L5.0607 10.3509C4.9662 10.4451 4.90549 10.568 4.88801 10.7004C4.87054 10.8328 4.89729 10.9673 4.96409 11.0829C5.68704 12.3162 6.56573 13.451 7.57841 14.459C8.58433 15.4738 9.71668 16.3543 10.9474 17.0787C11.0628 17.1457 11.197 17.1725 11.3292 17.155C11.4613 17.1374 11.584 17.0766 11.678 16.9819L12.8855 15.7719C12.9987 15.6592 13.1517 15.5959 13.3112 15.5959C13.4707 15.5959 13.6237 15.6592 13.7368 15.7719L15.4455 17.4841C15.5015 17.5406 15.5457 17.6077 15.5758 17.6814C15.6058 17.7551 15.6211 17.834 15.6206 17.9136C15.6168 18.0682 15.5542 18.2154 15.4455 18.3251Z" fill="currentColor"></path>
    <path d="M7.96351 3.35828L8.9407 1.96271C9.03368 1.82991 9.07003 1.66556 9.04173 1.50581C9.01344 1.34605 8.92282 1.20399 8.78982 1.11086C8.65682 1.01773 8.49233 0.981167 8.33253 1.00922C8.17273 1.03727 8.03072 1.12763 7.93774 1.26042L6.18747 3.76006C6.09457 3.89273 6.05821 4.0569 6.08636 4.21651C6.11451 4.37613 6.20487 4.51815 6.3376 4.61139L8.84228 6.371C8.97509 6.4643 9.13947 6.50112 9.29926 6.47336C9.45906 6.4456 9.60119 6.35553 9.69441 6.22296L9.69511 6.22196C9.788 6.0893 9.82437 5.92513 9.79622 5.76551C9.76807 5.60589 9.67771 5.46387 9.54498 5.37064L8.34631 4.52871C9.81084 3.84731 11.4601 3.66826 13.0383 4.01933C14.6165 4.3704 16.0355 5.23196 17.0752 6.47041C18.1148 7.70886 18.7171 9.25497 18.7885 10.869C18.8599 12.483 18.3966 14.0747 17.4703 15.3972C17.3773 15.53 17.3409 15.6944 17.3692 15.8541C17.3975 16.0139 17.4882 16.1559 17.6212 16.2491C17.7542 16.3422 17.9187 16.3787 18.0784 16.3507C18.2382 16.3226 18.3803 16.2323 18.4732 16.0995C19.5463 14.5669 20.0867 12.7243 20.0118 10.8538C19.937 8.98336 19.2509 7.18805 18.0587 5.74272C16.8665 4.29738 15.2339 3.28165 13.4106 2.85102C11.5874 2.42038 9.67406 2.59856 7.96351 3.35828Z" fill="currentColor"></path>
    <path d="M14.5942 14.9006L14.6651 14.8301L14.6651 14.8301L14.5942 14.9006ZM12.0282 14.9006L12.099 14.9713L12.0991 14.9711L12.0282 14.9006ZM11.1527 15.7779L11.099 15.8623L11.1668 15.9054L11.2235 15.8486L11.1527 15.7779ZM8.42972 13.5877L8.50063 13.5172L8.50052 13.5171L8.42972 13.5877ZM6.24408 10.8591L6.1733 10.7884L6.1167 10.8452L6.15971 10.9128L6.24408 10.8591ZM7.11954 9.9818L7.04888 9.91104L7.04876 9.91116L7.11954 9.9818ZM7.65229 8.69613H7.75229H7.65229ZM7.11954 7.41045L7.19021 7.33969L7.1902 7.33969L7.11954 7.41045ZM5.41088 5.70429L5.33935 5.77418L5.34022 5.77505L5.41088 5.70429ZM4.13693 5.17187L4.13669 5.27187L4.1375 5.27187L4.13693 5.17187ZM2.85091 5.70429L2.92143 5.77519L2.92173 5.77488L2.85091 5.70429ZM2.02978 6.52107L1.9592 6.45011L1.95649 6.45304L2.02978 6.52107ZM1.0396 9.69744L1.13941 9.68894L1.13858 9.68315L1.0396 9.69744ZM12.3119 20.9932L12.3024 21.0928L12.3066 21.0931L12.3119 20.9932ZM12.8191 20.9932L12.8233 20.8928L12.8138 20.8934L12.8191 20.9932ZM15.4817 20.001L15.5503 20.0738L15.5528 20.0714L15.4817 20.001ZM16.2968 19.1781L16.2261 19.1075L16.2258 19.1078L16.2968 19.1781ZM16.8281 17.8894L16.7281 17.8889L16.7281 17.8897L16.8281 17.8894ZM16.2968 16.6129L16.2259 16.6834L16.2268 16.6842L16.2968 16.6129ZM15.4455 18.3251L15.516 18.396L15.5165 18.3954L15.4455 18.3251ZM14.6244 19.1418L14.6887 19.2189L14.6949 19.2127L14.6244 19.1418ZM12.4146 19.7469L12.4307 19.6479L12.4232 19.6472L12.4146 19.7469ZM2.24714 9.59458L2.34693 9.58509L2.34578 9.57815L2.24714 9.59458ZM2.85091 7.3802L2.78103 7.3079L2.77428 7.31595L2.85091 7.3802ZM3.70222 6.55737L3.77172 6.62928L3.77271 6.62829L3.70222 6.55737ZM4.13089 6.38191L4.13031 6.48192L4.13147 6.48191L4.13089 6.38191ZM4.55957 6.55737L4.63073 6.4871L4.63006 6.48644L4.55957 6.55737ZM6.26823 8.28774L6.19708 8.358L6.19724 8.35816L6.26823 8.28774ZM6.4438 8.71428H6.3438H6.4438ZM6.26823 9.14082L6.33902 9.21146L6.33923 9.21124L6.26823 9.14082ZM5.0607 10.3509L5.13131 10.4217L5.13148 10.4215L5.0607 10.3509ZM4.96409 11.0829L4.87751 11.133L4.87782 11.1335L4.96409 11.0829ZM7.57841 14.459L7.64943 14.3886L7.64896 14.3881L7.57841 14.459ZM10.9474 17.0787L10.8967 17.1649L10.8972 17.1652L10.9474 17.0787ZM11.678 16.9819L11.6072 16.9113L11.607 16.9115L11.678 16.9819ZM12.8855 15.7719L12.815 15.701L12.8147 15.7012L12.8855 15.7719ZM13.7368 15.7719L13.8076 15.7012L13.8074 15.701L13.7368 15.7719ZM15.4455 17.4841L15.5166 17.4137L15.5163 17.4134L15.4455 17.4841ZM15.6206 17.9136L15.7206 17.9161L15.7206 17.9142L15.6206 17.9136ZM7.96351 3.35828L7.88159 3.30093L7.67513 3.59578L8.0041 3.44968L7.96351 3.35828ZM8.9407 1.96271L8.85879 1.90535V1.90535L8.9407 1.96271ZM7.93774 1.26042L8.01965 1.31778L7.93774 1.26042ZM6.18747 3.76006L6.26938 3.81742L6.18747 3.76006ZM6.3376 4.61139L6.39508 4.52956L6.39508 4.52956L6.3376 4.61139ZM8.84228 6.371L8.78479 6.45283L8.7848 6.45283L8.84228 6.371ZM9.69441 6.22296L9.77621 6.28049L9.77634 6.2803L9.69441 6.22296ZM9.69511 6.22196L9.6132 6.1646L9.61318 6.16462L9.69511 6.22196ZM9.54498 5.37064L9.60246 5.28881L9.60246 5.28881L9.54498 5.37064ZM8.34631 4.52871L8.30413 4.43804L8.1472 4.51106L8.28883 4.61054L8.34631 4.52871ZM17.4703 15.3972L17.3884 15.3398L17.3884 15.3398L17.4703 15.3972ZM18.4732 16.0995L18.5552 16.1568L18.5552 16.1568L18.4732 16.0995ZM14.6651 14.8301C14.4875 14.6516 14.2765 14.5099 14.0442 14.4132L13.9674 14.5979C14.1754 14.6844 14.3643 14.8113 14.5233 14.9711L14.6651 14.8301ZM14.0442 14.4132C13.8119 14.3165 13.5628 14.2668 13.3112 14.2668V14.4668C13.5364 14.4668 13.7594 14.5113 13.9674 14.5979L14.0442 14.4132ZM13.3112 14.2668C13.0596 14.2668 12.8105 14.3165 12.5782 14.4132L12.655 14.5979C12.863 14.5113 13.086 14.4668 13.3112 14.4668V14.2668ZM12.5782 14.4132C12.3458 14.5099 12.1348 14.6516 11.9573 14.8301L12.0991 14.9711C12.2581 14.8113 12.447 14.6844 12.655 14.5979L12.5782 14.4132ZM11.9574 14.83L11.0819 15.7073L11.2235 15.8486L12.099 14.9713L11.9574 14.83ZM11.2064 15.6935C10.2269 15.0706 9.31945 14.3407 8.50063 13.5172L8.35881 13.6582C9.18806 14.4922 10.1071 15.2314 11.099 15.8623L11.2064 15.6935ZM8.50052 13.5171C7.68038 12.6949 6.95206 11.7857 6.32845 10.8054L6.15971 10.9128C6.7911 11.9053 7.52852 12.8259 8.35892 13.6584L8.50052 13.5171ZM6.31487 10.9297L7.19033 10.0524L7.04876 9.91116L6.1733 10.7884L6.31487 10.9297ZM7.19021 10.0526C7.36838 9.87463 7.50974 9.66322 7.60619 9.43046L7.42143 9.3539C7.33504 9.56238 7.20843 9.75171 7.04888 9.91104L7.19021 10.0526ZM7.60619 9.43046C7.70264 9.19769 7.75229 8.94815 7.75229 8.69613H7.55229C7.55229 8.92188 7.50782 9.14541 7.42143 9.3539L7.60619 9.43046ZM7.75229 8.69613C7.75229 8.4441 7.70264 8.19456 7.60619 7.96179L7.42143 8.03835C7.50782 8.24684 7.55229 8.47037 7.55229 8.69613H7.75229ZM7.60619 7.96179C7.50974 7.72903 7.36838 7.51762 7.19021 7.33969L7.04888 7.48121C7.20843 7.64054 7.33504 7.82987 7.42143 8.03835L7.60619 7.96179ZM7.1902 7.33969L5.48154 5.63353L5.34022 5.77505L7.04889 7.48122L7.1902 7.33969ZM5.4824 5.6344C5.30714 5.45504 5.09766 5.31281 4.86643 5.21617L4.7893 5.4007C4.99577 5.48699 5.18283 5.61399 5.33936 5.77418L5.4824 5.6344ZM4.86643 5.21617C4.63519 5.11953 4.38692 5.07045 4.13637 5.07187L4.1375 5.27187C4.36118 5.2706 4.58284 5.31441 4.7893 5.4007L4.86643 5.21617ZM4.13718 5.07187C3.88516 5.07125 3.63552 5.12057 3.40261 5.217L3.47912 5.40179C3.68762 5.31547 3.9111 5.27131 4.13669 5.27187L4.13718 5.07187ZM3.40261 5.217C3.1697 5.31342 2.95814 5.45504 2.78008 5.63369L2.92173 5.77488C3.08118 5.6149 3.27061 5.48811 3.47912 5.40179L3.40261 5.217ZM2.78038 5.63339L1.95926 6.45017L2.1003 6.59197L2.92143 5.77519L2.78038 5.63339ZM1.95649 6.45304C1.55494 6.88567 1.25527 7.40296 1.07948 7.96688L1.27041 8.0264C1.43733 7.49096 1.72186 6.99983 2.10308 6.5891L1.95649 6.45304ZM1.07948 7.96688C0.903685 8.5308 0.856241 9.12702 0.940628 9.71172L1.13858 9.68315C1.05845 9.12797 1.1035 8.56184 1.27041 8.0264L1.07948 7.96688ZM0.939963 9.70592C1.13587 12.0064 2.63759 14.7558 4.93548 17.0646L5.07723 16.9235C2.79856 14.634 1.32975 11.9261 1.13924 9.68895L0.939963 9.70592ZM4.93548 17.0646C7.23403 19.374 10.0076 20.872 12.3024 21.0928L12.3215 20.8937C10.088 20.6788 7.35524 19.2122 5.07723 16.9235L4.93548 17.0646ZM12.3066 21.0931C12.4791 21.1023 12.652 21.1023 12.8245 21.0931L12.8138 20.8934C12.6484 20.9022 12.4827 20.9022 12.3173 20.8934L12.3066 21.0931ZM12.8149 21.0931C13.3156 21.1142 13.8155 21.0349 14.2852 20.8598L14.2153 20.6724C13.7706 20.8382 13.2974 20.9132 12.8233 20.8933L12.8149 21.0931ZM14.2852 20.8598C14.7549 20.6848 15.185 20.4176 15.5503 20.0738L15.4132 19.9282C15.0673 20.2537 14.6601 20.5067 14.2153 20.6724L14.2852 20.8598ZM15.5528 20.0714L16.3679 19.2485L16.2258 19.1078L15.4107 19.9306L15.5528 20.0714ZM16.3676 19.2488C16.5458 19.0704 16.6871 18.8584 16.7833 18.6251L16.5984 18.5488C16.5123 18.7578 16.3857 18.9477 16.2261 19.1075L16.3676 19.2488ZM16.7833 18.6251C16.8795 18.3917 16.9287 18.1417 16.9281 17.8892L16.7281 17.8897C16.7287 18.1158 16.6846 18.3398 16.5984 18.5488L16.7833 18.6251ZM16.9281 17.89C16.9295 17.639 16.8806 17.3903 16.7842 17.1587L16.5995 17.2355C16.6857 17.4425 16.7294 17.6646 16.7281 17.8889L16.9281 17.89ZM16.7842 17.1587C16.6878 16.927 16.5458 16.7171 16.3669 16.5415L16.2268 16.6842C16.3866 16.8411 16.5134 17.0286 16.5995 17.2355L16.7842 17.1587ZM16.3677 16.5423L14.6651 14.8301L14.5233 14.9711L16.2259 16.6834L16.3677 16.5423ZM15.375 18.2542L14.5539 19.0709L14.6949 19.2127L15.516 18.396L15.375 18.2542ZM14.5603 19.0651C14.2677 19.3095 13.9261 19.488 13.5587 19.5886L13.6115 19.7815C14.0066 19.6733 14.3739 19.4813 14.6885 19.2186L14.5603 19.0651ZM13.5587 19.5886C13.1913 19.6892 12.8066 19.7095 12.4307 19.6482L12.3985 19.8456C12.8027 19.9115 13.2164 19.8896 13.6115 19.7815L13.5587 19.5886ZM12.4232 19.6472C10.4935 19.4806 8.01472 18.1064 5.95864 16.0461L5.81707 16.1874C7.89077 18.2654 10.4111 19.6743 12.406 19.8465L12.4232 19.6472ZM5.95864 16.0461C3.90252 13.9857 2.53081 11.5195 2.34669 9.58511L2.14759 9.60406C2.3378 11.6023 3.74342 14.1094 5.81707 16.1874L5.95864 16.0461ZM2.34578 9.57815C2.28304 9.20149 2.30256 8.81567 2.403 8.4473L2.21005 8.39469C2.10201 8.79091 2.08102 9.20588 2.1485 9.61102L2.34578 9.57815ZM2.403 8.4473C2.50344 8.07894 2.6824 7.73679 2.92753 7.44445L2.77428 7.31595C2.51057 7.63044 2.31808 7.99848 2.21005 8.39469L2.403 8.4473ZM2.9204 7.4521L3.77172 6.62927L3.63272 6.48547L2.78141 7.3083L2.9204 7.4521ZM3.77271 6.62829C3.8198 6.5815 3.87562 6.54449 3.93698 6.51937L3.86122 6.33428C3.77546 6.36938 3.69747 6.42109 3.63172 6.48644L3.77271 6.62829ZM3.93698 6.51937C3.99835 6.49426 4.06404 6.48153 4.13031 6.48191L4.13147 6.28192C4.03882 6.28138 3.94698 6.29917 3.86122 6.33428L3.93698 6.51937ZM4.13147 6.48191C4.19774 6.48153 4.26344 6.49426 4.3248 6.51937L4.40056 6.33428C4.3148 6.29917 4.22296 6.28138 4.13031 6.28192L4.13147 6.48191ZM4.3248 6.51937C4.38617 6.54449 4.44199 6.5815 4.48907 6.62829L4.63006 6.48644C4.56431 6.42109 4.48632 6.36938 4.40056 6.33428L4.3248 6.51937ZM4.48841 6.62763L6.19708 8.358L6.33939 8.21747L4.63072 6.48711L4.48841 6.62763ZM6.19724 8.35816C6.29109 8.45277 6.3438 8.58079 6.3438 8.71428H6.5438C6.5438 8.52809 6.47028 8.34942 6.33923 8.21731L6.19724 8.35816ZM6.3438 8.71428C6.3438 8.84776 6.29109 8.97578 6.19724 9.07039L6.33923 9.21124C6.47028 9.07913 6.5438 8.90047 6.5438 8.71428H6.3438ZM6.19745 9.07018L4.98991 10.2802L5.13148 10.4215L6.33902 9.21145L6.19745 9.07018ZM4.99009 10.2801C4.87996 10.3899 4.80923 10.5331 4.78887 10.6873L4.98715 10.7135C5.00175 10.6029 5.05245 10.5003 5.13131 10.4217L4.99009 10.2801ZM4.78887 10.6873C4.76852 10.8416 4.79967 10.9983 4.87751 11.133L5.05067 11.0329C4.9949 10.9364 4.97256 10.8241 4.98715 10.7135L4.78887 10.6873ZM4.87782 11.1335C5.60511 12.3742 6.48909 13.5158 7.50786 14.5298L7.64896 14.3881C6.64237 13.3861 5.76897 12.2583 5.05036 11.0324L4.87782 11.1335ZM7.50739 14.5294C8.51936 15.5503 9.65854 16.4361 10.8967 17.1649L10.9982 16.9925C9.77483 16.2725 8.6493 15.3972 7.64943 14.3886L7.50739 14.5294ZM10.8972 17.1652C11.0317 17.2432 11.1882 17.2745 11.3423 17.2541L11.316 17.0558C11.2058 17.0704 11.0939 17.0481 10.9976 16.9922L10.8972 17.1652ZM11.3423 17.2541C11.4964 17.2337 11.6394 17.1627 11.749 17.0524L11.607 16.9115C11.5286 16.9905 11.4262 17.0412 11.316 17.0558L11.3423 17.2541ZM11.7488 17.0526L12.9563 15.8425L12.8147 15.7012L11.6072 16.9113L11.7488 17.0526ZM12.9561 15.8427C13.0505 15.7487 13.1782 15.6959 13.3112 15.6959V15.4959C13.1252 15.4959 12.9468 15.5697 12.815 15.701L12.9561 15.8427ZM13.3112 15.6959C13.4442 15.6959 13.5719 15.7487 13.6663 15.8427L13.8074 15.701C13.6756 15.5697 13.4972 15.4959 13.3112 15.4959V15.6959ZM13.6661 15.8425L15.3747 17.5547L15.5163 17.4134L13.8076 15.7012L13.6661 15.8425ZM15.3744 17.5544C15.4211 17.6016 15.4581 17.6576 15.4832 17.7191L15.6684 17.6436C15.6334 17.5577 15.5818 17.4796 15.5166 17.4137L15.3744 17.5544ZM15.4832 17.7191C15.5083 17.7807 15.521 17.8466 15.5206 17.9131L15.7206 17.9142C15.7211 17.8215 15.7034 17.7295 15.6684 17.6436L15.4832 17.7191ZM15.5206 17.9112C15.5175 18.0402 15.4651 18.1631 15.3745 18.2547L15.5165 18.3954C15.6432 18.2676 15.7162 18.0961 15.7206 17.9161L15.5206 17.9112ZM8.04542 3.41564L9.02262 2.02007L8.85879 1.90535L7.88159 3.30093L8.04542 3.41564ZM9.02262 2.02007C9.13084 1.8655 9.17312 1.67424 9.1402 1.48837L8.94326 1.52325C8.96693 1.65688 8.93653 1.79432 8.85879 1.90535L9.02262 2.02007ZM9.1402 1.48837C9.10728 1.3025 9.00186 1.13725 8.84718 1.02894L8.73246 1.19277C8.84378 1.27072 8.91959 1.38961 8.94326 1.52325L9.1402 1.48837ZM8.84718 1.02894C8.69249 0.92063 8.50116 0.878089 8.31524 0.910723L8.34982 1.10771C8.4835 1.08425 8.62114 1.11483 8.73246 1.19277L8.84718 1.02894ZM8.31524 0.910723C8.12932 0.943358 7.96405 1.0485 7.85582 1.20307L8.01965 1.31778C8.09739 1.20675 8.21615 1.13117 8.34982 1.10771L8.31524 0.910723ZM7.85582 1.20307L6.10555 3.70271L6.26938 3.81742L8.01965 1.31778L7.85582 1.20307ZM6.10555 3.70271C5.99743 3.85712 5.95513 4.04817 5.98788 4.23388L6.18484 4.19915C6.16129 4.06563 6.19172 3.92834 6.26938 3.81742L6.10555 3.70271ZM5.98788 4.23388C6.02063 4.41959 6.12575 4.58478 6.28012 4.69322L6.39508 4.52956C6.28399 4.45152 6.20839 4.33268 6.18484 4.19915L5.98788 4.23388ZM6.28011 4.69321L8.78479 6.45283L8.89976 6.28918L6.39508 4.52956L6.28011 4.69321ZM8.7848 6.45283C8.93927 6.56134 9.13047 6.60418 9.31638 6.57188L9.28215 6.37483C9.14847 6.39806 9.01092 6.36726 8.89976 6.28917L8.7848 6.45283ZM9.31638 6.57188C9.5023 6.53958 9.66771 6.43478 9.77621 6.28049L9.61261 6.16544C9.53467 6.27628 9.41582 6.35161 9.28215 6.37483L9.31638 6.57188ZM9.77634 6.2803L9.77704 6.2793L9.61318 6.16462L9.61248 6.16563L9.77634 6.2803ZM9.77703 6.27932C9.88515 6.12491 9.92745 5.93386 9.8947 5.74815L9.69774 5.78288C9.72129 5.9164 9.69086 6.05368 9.6132 6.1646L9.77703 6.27932ZM9.8947 5.74815C9.86195 5.56244 9.75683 5.39725 9.60246 5.28881L9.4875 5.45247C9.59859 5.5305 9.67419 5.64935 9.69774 5.78288L9.8947 5.74815ZM9.60246 5.28881L8.40379 4.44688L8.28883 4.61054L9.4875 5.45247L9.60246 5.28881ZM8.3885 4.61938C9.83305 3.94727 11.4598 3.77065 13.0166 4.11694L13.06 3.92171C11.4603 3.56587 9.78863 3.74735 8.30413 4.43804L8.3885 4.61938ZM13.0166 4.11694C14.5734 4.46324 15.973 5.31309 16.9986 6.53471L17.1517 6.40611C16.098 5.15083 14.6597 4.27755 13.06 3.92171L13.0166 4.11694ZM16.9986 6.53471C18.0241 7.75632 18.6181 9.28139 18.6886 10.8734L18.8884 10.8646C18.816 9.22855 18.2055 7.66139 17.1517 6.40611L16.9986 6.53471ZM18.6886 10.8734C18.7591 12.4654 18.302 14.0354 17.3884 15.3398L17.5522 15.4546C18.4911 14.114 18.9608 12.5006 18.8884 10.8646L18.6886 10.8734ZM17.3884 15.3398C17.2801 15.4944 17.2379 15.6857 17.2708 15.8715L17.4677 15.8367C17.444 15.703 17.4744 15.5656 17.5522 15.4546L17.3884 15.3398ZM17.2708 15.8715C17.3037 16.0574 17.4091 16.2227 17.5638 16.331L17.6785 16.1671C17.5672 16.0892 17.4914 15.9703 17.4677 15.8367L17.2708 15.8715ZM17.5638 16.331C17.7185 16.4393 17.9098 16.4818 18.0957 16.4492L18.0612 16.2522C17.9275 16.2757 17.7898 16.2451 17.6785 16.1671L17.5638 16.331ZM18.0957 16.4492C18.2817 16.4166 18.4469 16.3114 18.5552 16.1568L18.3913 16.0421C18.3136 16.1532 18.1948 16.2287 18.0612 16.2522L18.0957 16.4492ZM18.5552 16.1568C19.6407 14.6063 20.1875 12.7422 20.1118 10.8498L19.9119 10.8578C19.9859 12.7064 19.4518 14.5275 18.3913 16.0421L18.5552 16.1568ZM20.1118 10.8498C20.036 8.95751 19.342 7.14126 18.1359 5.67908L17.9816 5.80635C19.1599 7.23484 19.8379 9.00921 19.9119 10.8578L20.1118 10.8498ZM18.1359 5.67908C16.9298 4.21691 15.2781 3.18935 13.4336 2.7537L13.3876 2.94834C15.1896 3.37396 16.8033 4.37785 17.9816 5.80635L18.1359 5.67908ZM13.4336 2.7537C11.5891 2.31804 9.65346 2.49829 7.92292 3.26689L8.0041 3.44968C9.69466 2.69883 11.5857 2.52272 13.3876 2.94834L13.4336 2.7537Z" fill="currentColor"></path>
  </symbol>
  <symbol xmlns="http://www.w3.org/2000/svg" viewBox="0 0 22 22" id="ic_close">
    <path d="M4.40002 4.40002L11 11M17.6 17.6L11 11M11 11L4.40002 17.6L17.6 4.40002" stroke="currentColor" stroke-width="2" fill="none"></path>
  </symbol>
  <symbol xmlns="http://www.w3.org/2000/svg" viewBox="0 0 21 21" id="ic_email">
    <path d="M16.8595 3H3.07825C1.91514 3 0.968872 3.94627 0.968872 5.10938V6.84943L8.70996 12.6074C9.08645 12.8874 9.52766 13.0274 9.96887 13.0274C10.4101 13.0274 10.8513 12.8874 11.2278 12.6074L18.9689 6.84943V5.10938C18.9689 3.94627 18.0226 3 16.8595 3ZM17.5626 6.14283L10.3885 11.479C10.1375 11.6657 9.80023 11.6657 9.54925 11.479L2.37512 6.14283V5.10938C2.37512 4.72167 2.69054 4.40625 3.07825 4.40625H16.8595C17.2472 4.40625 17.5626 4.72167 17.5626 5.10938V6.14283ZM17.5626 10.9013C17.5626 10.679 17.6677 10.4698 17.8461 10.3372C18.31 9.99212 18.9689 10.3232 18.9689 10.9013V15.5156C18.9689 16.6787 18.0226 17.625 16.8595 17.625H3.07825C1.91514 17.625 0.968872 16.6787 0.968872 15.5156V11.8013C0.968872 11.2232 1.62776 10.8921 2.09163 11.2372C2.27 11.3698 2.37512 11.579 2.37512 11.8013V15.5156C2.37512 15.9033 2.69054 16.2188 3.07825 16.2188H16.8595C17.2472 16.2188 17.5626 15.9033 17.5626 15.5156V10.9013Z" fill="currentColor"></path>
  </symbol>
  <symbol xmlns="http://www.w3.org/2000/svg" viewBox="0 0 21 21" id="ic_location">
    <path d="M17.368 3.65365C15.8411 1.44389 13.4213 0.17627 10.7295 0.17627C8.03765 0.17627 5.61785 1.44389 4.09101 3.65365C2.57167 5.85225 2.22085 8.63572 3.1507 11.0949C3.39941 11.7665 3.79476 12.4189 4.32296 13.0303L10.1971 19.9301C10.33 20.0863 10.5246 20.1763 10.7295 20.1763C10.9344 20.1763 11.129 20.0863 11.2619 19.9301L17.1344 13.0322C17.6649 12.4173 18.0598 11.7655 18.3064 11.0994C19.2381 8.63572 18.8873 5.85225 17.368 3.65365ZM16.9969 10.6096C16.8067 11.1236 16.4962 11.6317 16.0745 12.1205C16.0733 12.1217 16.0721 12.1229 16.0712 12.1243L10.7295 18.3984L5.38449 12.1203C4.96304 11.632 4.65253 11.1238 4.46046 10.6049C3.69148 8.57115 3.98331 6.26975 5.24136 4.449C6.50335 2.62244 8.50382 1.57486 10.7295 1.57486C12.9551 1.57486 14.9553 2.6224 16.2174 4.449C17.4757 6.26975 17.7677 8.57115 16.9969 10.6096Z" fill="currentColor"></path>
    <path d="M10.7294 4.32544C8.57023 4.32544 6.81335 6.08208 6.81335 8.24153C6.81335 10.401 8.57 12.1576 10.7294 12.1576C12.8889 12.1576 14.6455 10.401 14.6455 8.24153C14.6455 6.08231 12.8887 4.32544 10.7294 4.32544ZM10.7294 10.759C9.34132 10.759 8.21195 9.62962 8.21195 8.24149C8.21195 6.85337 9.34132 5.72399 10.7294 5.72399C12.1176 5.72399 13.2469 6.85337 13.2469 8.24149C13.2469 9.62962 12.1176 10.759 10.7294 10.759Z" fill="currentColor"></path>
  </symbol>
  <symbol xmlns="http://www.w3.org/2000/svg" viewBox="0 0 22 22" id="ic_menu">
    <line y1="7" x2="22" y2="7" stroke="currentColor" stroke-width="2" fill="none"></line>
    <line x1="7" y1="15" x2="22" y2="15" stroke="currentColor" stroke-width="2" fill="none"></line>
  </symbol>
  <symbol xmlns="http://www.w3.org/2000/svg" viewBox="0 0 21 21" id="ic_telegram">
    <path d="M19.7559 1.0046C19.2967 0.545185 18.6276 0.384287 18.0098 0.584794L1.44984 5.9595C0.800463 6.17028 0.349215 6.72274 0.272184 7.40133C0.195153 8.08004 0.511167 8.71972 1.09695 9.0707C1.14007 9.09656 1.18562 9.11816 1.23284 9.13527L6.1915 10.9282L6.19634 16.2755C6.197 16.9776 6.62079 17.5941 7.2761 17.8461C7.92129 18.0963 8.6575 17.9282 9.13004 17.4039C9.13105 17.4027 9.13215 17.4015 9.13316 17.4004L10.8485 15.481L13.7281 19.6853C14.0793 20.2584 14.7248 20.5652 15.3817 20.4883C16.0603 20.4118 16.613 19.9608 16.8242 19.3112C16.8334 19.2827 16.8411 19.2538 16.847 19.2246L17.3727 16.6265C17.4583 16.2036 17.1848 15.7914 16.7619 15.7058C16.339 15.6202 15.9268 15.8937 15.8413 16.3166L15.3277 18.8541C15.3042 18.9018 15.2636 18.9292 15.2068 18.9356C15.1407 18.9429 15.0893 18.9177 15.055 18.8602C15.0467 18.8464 15.038 18.8328 15.029 18.8196L11.8387 14.1618L16.4173 5.67497C16.5833 5.36731 16.5247 4.98685 16.2738 4.74337C16.0228 4.49993 15.6408 4.45271 15.3383 4.6279L6.88911 9.51898L1.86323 7.70172C1.8319 7.66953 1.81897 7.62793 1.82472 7.57754C1.83229 7.51074 1.86847 7.46637 1.93218 7.4457L18.4921 2.071C18.5526 2.05147 18.6059 2.06428 18.6508 2.10924C18.6961 2.15455 18.709 2.2085 18.6892 2.26955C18.68 2.29799 18.6723 2.32686 18.6664 2.35611L16.6102 12.5172C16.5246 12.9401 16.7981 13.3523 17.2209 13.4379C17.6436 13.5237 18.056 13.25 18.1416 12.8271L20.1903 2.7035C20.3675 2.09897 20.2034 1.45229 19.7559 1.0046ZM13.7308 7.36387L10.264 13.7902L7.97001 16.3572C7.95254 16.3764 7.91325 16.4171 7.83708 16.3878C7.75899 16.3577 7.75895 16.2991 7.75891 16.2741L7.75399 10.8237L13.7308 7.36387Z" fill="currentColor"></path>
  </symbol>
  <symbol xmlns="http://www.w3.org/2000/svg" viewBox="0 0 21 21" id="ic_phone">
    <path d="M17.4387 12.0637C17.2473 11.8713 17.0199 11.7186 16.7696 11.6144C16.5192 11.5102 16.2507 11.4566 15.9796 11.4566C15.7085 11.4566 15.4401 11.5102 15.1897 11.6144C14.9393 11.7186 14.7119 11.8713 14.5206 12.0637L13.525 13.0614C12.404 12.3485 11.3655 11.5131 10.4284 10.5707C9.48986 9.62984 8.65643 8.58934 7.94283 7.46761L8.93842 6.46995C9.13045 6.27819 9.28281 6.05032 9.38678 5.79943C9.49074 5.54853 9.54426 5.27953 9.54426 5.00787C9.54426 4.7362 9.49074 4.4672 9.38678 4.21631C9.28281 3.96541 9.13045 3.73755 8.93842 3.54578L6.9953 1.60551C6.80664 1.41244 6.58117 1.25935 6.33229 1.15533C6.08341 1.05132 5.8162 0.998507 5.54655 1.00003C5.27498 0.999365 5.00596 1.05252 4.75497 1.15643C4.50398 1.26034 4.27597 1.41296 4.08406 1.60551L3.15027 2.53436C2.70519 3.0139 2.373 3.5873 2.17814 4.2124C1.98327 4.83751 1.93068 5.49842 2.02422 6.14657C2.24394 8.72672 3.93301 11.8298 6.53527 14.4443C9.13753 17.0589 12.2685 18.7446 14.8433 18.9923C15.0354 19.0026 15.2279 19.0026 15.42 18.9923C15.9743 19.0156 16.5276 18.9278 17.0476 18.734C17.5675 18.5403 18.0436 18.2445 18.448 17.8639L19.3749 16.9282C19.5671 16.7359 19.7194 16.5074 19.8231 16.2559C19.9268 16.0043 19.9798 15.7348 19.9792 15.4626C19.9807 15.1924 19.928 14.9247 19.8242 14.6753C19.7204 14.4259 19.5676 14.1999 19.3749 14.0109L17.4387 12.0637ZM18.4068 15.958L17.473 16.8869C17.1278 17.1752 16.7247 17.3859 16.2911 17.5046C15.8576 17.6233 15.4036 17.6473 14.96 17.5749C12.7285 17.3823 9.88594 15.7998 7.53773 13.4467C5.18951 11.0936 3.6103 8.26574 3.39745 6.02961C3.32341 5.58507 3.34645 5.12974 3.46498 4.69499C3.58352 4.26024 3.79473 3.85642 4.08406 3.51138L5.05219 2.57564C5.11634 2.51188 5.19243 2.46142 5.27609 2.42718C5.35974 2.39294 5.44932 2.37559 5.53968 2.37611C5.63004 2.37559 5.71962 2.39294 5.80328 2.42718C5.88693 2.46142 5.96302 2.51188 6.02718 2.57564L7.97029 4.54344C8.09817 4.67235 8.16995 4.84674 8.16995 5.02851C8.16995 5.21028 8.09817 5.38466 7.97029 5.51358L6.59707 6.88966C6.48961 6.99681 6.42056 7.13658 6.40069 7.28718C6.38082 7.43777 6.41124 7.59073 6.48721 7.72218C7.30935 9.12472 8.30861 10.4151 9.46024 11.5614C10.6042 12.7155 11.8919 13.7168 13.2915 14.5407C13.4227 14.6168 13.5754 14.6473 13.7256 14.6274C13.8759 14.6074 14.0154 14.5383 14.1223 14.4306L15.4956 13.0545C15.6242 12.9263 15.7982 12.8544 15.9796 12.8544C16.161 12.8544 16.335 12.9263 16.4637 13.0545L18.4068 15.0017C18.4704 15.0659 18.5208 15.1422 18.555 15.226C18.5891 15.3098 18.6064 15.3996 18.6059 15.4902C18.6016 15.6659 18.5304 15.8333 18.4068 15.958Z" fill="currentColor"></path>
  </symbol>
  <symbol xmlns="http://www.w3.org/2000/svg" viewBox="0 0 21 21" id="ic_whatsapp">
    <path d="M10.5204 20.3418H10.5164C8.95602 20.3412 7.40894 19.9728 6.02252 19.274L1.74884 20.2461C1.48807 20.3053 1.21494 20.227 1.02512 20.0386C0.835297 19.8501 0.755188 19.5776 0.812561 19.3164L1.73862 15.1071C0.943024 13.6378 0.522949 12.0286 0.52066 10.433C0.520508 10.4275 0.520508 10.422 0.520508 10.4167C0.521576 7.77249 1.56726 5.28226 3.46469 3.40482C5.35785 1.53165 7.86349 0.5 10.5202 0.5C13.1829 0.501068 15.6845 1.53363 17.5652 3.40726C19.4719 5.30698 20.5214 7.79919 20.5205 10.4246C20.5197 12.4087 19.9248 14.3263 18.8001 15.9698C18.5564 16.326 18.0703 16.4171 17.7141 16.1734C17.3581 15.9297 17.2669 15.4435 17.5106 15.0874C18.4568 13.7047 18.9572 12.0921 18.958 10.424C18.9588 8.21713 18.0725 6.11829 16.4624 4.51413C14.8766 2.93408 12.7661 2.06342 10.5199 2.0625C5.87466 2.0625 2.09277 5.80243 2.08301 10.4026C2.08301 10.4077 2.08316 10.4126 2.08316 10.4174C2.08255 11.8414 2.48309 13.2852 3.2413 14.5927C3.33942 14.7619 3.37054 14.9617 3.32843 15.1526L2.60318 18.4492L5.9563 17.6864C6.14139 17.6445 6.33548 17.6712 6.50241 17.7617C7.72754 18.4268 9.11563 18.7787 10.5167 18.7793H10.5202C12.0438 18.7793 13.5401 18.3673 14.8471 17.588C15.2176 17.3669 15.6972 17.4882 15.9182 17.8589C16.1391 18.2295 16.0179 18.7089 15.6473 18.93C14.0984 19.8535 12.3255 20.3418 10.5202 20.3418H10.5204ZM8.31393 6.44604C8.14258 6.06641 7.96222 6.05344 7.79926 6.04688H7.36087C7.20828 6.04688 6.96048 6.10394 6.75098 6.33206C6.54132 6.56018 5.95035 7.11163 5.95035 8.23331C5.95035 9.35498 6.77005 10.439 6.88434 10.5912C6.99878 10.7432 8.46683 13.1186 10.7917 14.0324C12.7239 14.7918 13.1171 14.6408 13.5364 14.6026C13.9559 14.5648 14.8899 14.0513 15.0803 13.519C15.271 12.9867 15.271 12.5305 15.2138 12.4351C15.1567 12.3402 15.0042 12.2831 14.7754 12.1692C14.5465 12.0552 13.4255 11.4941 13.2158 11.4181C13.0062 11.3421 12.8537 11.3041 12.7011 11.5324C12.5486 11.7604 12.0993 12.2876 11.9658 12.4395C11.8325 12.592 11.6989 12.6109 11.4702 12.4969C11.2415 12.3825 10.5123 12.1376 9.6384 11.3611C8.95831 10.7567 8.48651 9.98608 8.353 9.75781C8.21948 9.52985 8.33865 9.40625 8.4534 9.29257C8.55609 9.19049 8.6951 9.05087 8.80954 8.91782C8.92368 8.78476 8.95633 8.6897 9.03247 8.53757C9.10876 8.38544 9.07062 8.25238 9.01355 8.13824C8.95633 8.02426 8.51718 6.89679 8.31378 6.44604" fill="currentColor"></path>
  </symbol>
</svg>